<?xml version="1.0" encoding="UTF-8" standalone="no"?>
<svg xmlns="http://www.w3.org/2000/svg" width="100.30000305175781mm" height="72.19999694824219mm" viewBox="0 0 100.30000305175781 72.19999694824219">
<desc>Created with Glowforge for Fusion 360. To download visit: https://cam.autodesk.com/hsmposts?p=glowforge</desc>
<!-- CAM Setup Info:
Work Area Width: 100.30000305175781mm
Work Area Height: 72.19999694824219mm
Work Area Too Small?: false
Stock box Upper Right: 48.150001525878906,34.099998474121094
Stock box Lower Left: -48.150001525878906,-34.099998474121094
Origin: 0,0
Selected Colors: #0000d3, #02abea, #1fb714, #dd0907, #f20884, #fbf305
-->
<g id="global-translation-frame" transform="translate(50.15, 36.1) scale(1, -1)">
<g id="opperation-1">
    <title>2D Profile1 (Op: 1/3)</title>
    <path d="M 25.455 27.1
             A 0.075 0.075 0 0 0 25.38 27.025
             L -25.38 27.025
             A 0.075 0.075 0 0 0 -25.455 27.1
             L -25.455 28.525
             L -29.075 28.525
             L -29.075 27.1
             A 0.075 0.075 0 0 0 -29.15 27.025
             L -41.075 27.025
             L -41.075 24.2
             A 0.075 0.075 0 0 0 -41.15 24.125
             L -42.575 24.125
             L -42.575 20.505
             L -41.15 20.505
             A 0.075 0.075 0 0 0 -41.075 20.43
             L -41.075 -20.43
             A 0.075 0.075 0 0 0 -41.15 -20.505
             L -42.575 -20.505
             L -42.575 -24.125
             L -41.15 -24.125
             A 0.075 0.075 0 0 0 -41.075 -24.2
             L -41.075 -27.025
             L 41.075 -27.025
             L 41.075 27.025
             L 29.15 27.025
             A 0.075 0.075 0 0 0 29.075 27.1
             L 29.075 28.525
             L 25.455 28.525
             L 25.455 27.1" fill="none" stroke="#0000d3" stroke-width="0.1"/>
</g>
<g id="opperation-2">
    <title>2D Profile2 (Op: 2/3)</title>
    <path d="M -44.15 -28.625
             A 1.475 1.475 0 0 1 -45.625 -30.1
             A 1.475 1.475 0 0 1 -44.15 -31.575
             A 1.475 1.475 0 0 1 -42.675 -30.1
             A 1.475 1.475 0 0 1 -44.15 -28.625
             M -43.225 28.951
             A 1.475 1.475 0 0 1 -43.001 31.025
             A 1.475 1.475 0 0 1 -45.075 31.249
             A 1.475 1.475 0 0 1 -45.299 29.175
             A 1.475 1.475 0 0 1 -43.225 28.951
             M 43.001 29.175
             A 1.475 1.475 0 0 1 45.075 28.951
             A 1.475 1.475 0 0 1 45.299 31.025
             A 1.475 1.475 0 0 1 43.225 31.249
             A 1.475 1.475 0 0 1 43.001 29.175
             M 44.121 -28.625
             A 1.475 1.475 0 0 1 42.675 -30.129
             A 1.475 1.475 0 0 1 44.179 -31.575
             A 1.475 1.475 0 0 1 45.625 -30.071
             A 1.475 1.475 0 0 1 44.121 -28.625" fill="none" stroke="#02abea" stroke-width="0.1"/>
</g>
<g id="opperation-3">
    <title>2D Profile3 (Op: 3/3)</title>
    <path d="M 47.225 -32.1
             A 1.075 1.075 0 0 0 46.15 -33.175
             L -46.15 -33.175
             A 1.075 1.075 0 0 0 -47.225 -32.1
             L -47.225 32.1
             A 1.075 1.075 0 0 0 -46.15 33.175
             L 46.15 33.175
             A 1.075 1.075 0 0 0 47.225 32.1
             L 47.225 -32.1" fill="none" stroke="#1fb714" stroke-width="0.1"/>
</g>
</g>
</svg>
