<?xml version="1.0" encoding="UTF-8" standalone="no"?>
<svg
   width="89.30378mm"
   height="89.30378mm"
   viewBox="0 0 89.30378 89.30378"
   version="1.1"
   id="svg6610"
   inkscape:version="1.1.1 (3bf5ae0d25, 2021-09-20)"
   sodipodi:docname="Cog1.svg"
   xmlns:inkscape="http://www.inkscape.org/namespaces/inkscape"
   xmlns:sodipodi="http://sodipodi.sourceforge.net/DTD/sodipodi-0.dtd"
   xmlns="http://www.w3.org/2000/svg"
   xmlns:svg="http://www.w3.org/2000/svg"
   xmlns:rdf="http://www.w3.org/1999/02/22-rdf-syntax-ns#"
   xmlns:cc="http://creativecommons.org/ns#"
   xmlns:dc="http://purl.org/dc/elements/1.1/">
  <defs
     id="defs6604" />
  <sodipodi:namedview
     id="base"
     pagecolor="#ffffff"
     bordercolor="#666666"
     borderopacity="1.0"
     inkscape:pageopacity="0.0"
     inkscape:pageshadow="2"
     inkscape:zoom="1.4"
     inkscape:cx="106.78571"
     inkscape:cy="193.92857"
     inkscape:document-units="mm"
     inkscape:current-layer="layer1"
     inkscape:document-rotation="0"
     showgrid="false"
     inkscape:window-width="2560"
     inkscape:window-height="1529"
     inkscape:window-x="-8"
     inkscape:window-y="-8"
     inkscape:window-maximized="1"
     inkscape:pagecheckerboard="0" />
  <metadata
     id="metadata6607">
    <rdf:RDF>
      <cc:Work
         rdf:about="">
        <dc:format>image/svg+xml</dc:format>
        <dc:type
           rdf:resource="http://purl.org/dc/dcmitype/StillImage" />
      </cc:Work>
    </rdf:RDF>
  </metadata>
  <g
     inkscape:label="Layer 1"
     inkscape:groupmode="layer"
     id="layer1"
     transform="translate(-95.955252,-82.348109)">
    <path
       style="fill:none;stroke:#f032e6;stroke-width:0.264583"
       d="m 172.10034,122.37534 4.0196,-0.59025 2.3576,0.22918 6.6492,3.01 v 3.95146 l -6.6492,3.01 -2.3576,0.22918 -4.0196,-0.59025 -1.9069,7.11694 3.7761,1.4985 1.9272,1.3773 4.2533,5.9313 -1.9757,3.4221 -7.2633,-0.7178 -2.1564,-0.9804 -3.1859,-2.5209 -5.2099,5.2099 2.5209,3.1859 0.9804,2.1564 0.7178,7.2633 -3.4221,1.9757 -5.9313,-4.2533 -1.3773,-1.9272 -1.4985,-3.7761 -7.11694,1.9069 0.59025,4.0196 -0.22918,2.3576 -3.01,6.6492 h -3.95146 l -3.01,-6.6492 -0.22918,-2.3576 0.59025,-4.0196 -7.11694,-1.9069 -1.4985,3.7761 -1.3773,1.9272 -5.9313,4.2533 -3.4221,-1.9757 0.7178,-7.2633 0.9804,-2.1564 2.5209,-3.1859 -5.2099,-5.2099 -3.1859,2.5209 -2.1564,0.9804 -7.2633,0.7178 -1.9757,-3.4221 4.2533,-5.9313 1.9272,-1.3773 3.7761,-1.4985 -1.9069,-7.11694 -4.0196,0.59025 -2.3576,-0.22918 -6.649197,-3.01 v -3.95146 l 6.649197,-3.01 2.3576,-0.22918 4.0196,0.59025 1.9069,-7.11694 -3.7761,-1.4985 -1.9272,-1.3773 -4.2533,-5.9313 1.9757,-3.4221 7.2633,0.7178 2.1564,0.9804 3.1859,2.5209 5.2099,-5.2099 -2.5209,-3.1859 -0.9804,-2.1564 -0.7178,-7.2633 3.4221,-1.9757 5.9313,4.2533 1.3773,1.9272 1.4985,3.7761 7.11694,-1.9069 -0.59025,-4.0196 0.22918,-2.3576 3.01,-6.6492 h 3.95146 l 3.01,6.6492 0.22918,2.3576 -0.59025,4.0196 7.11694,1.9069 1.4985,-3.7761 1.3773,-1.9272 5.9313,-4.2533 3.4221,1.9757 -0.7178,7.2633 -0.9804,2.1564 -2.5209,3.1859 5.2099,5.2099 3.1859,-2.5209 2.1564,-0.9804 7.2633,-0.7178 1.9757,3.4221 -4.2533,5.9313 -1.9272,1.3773 -3.7761,1.4985 z"
       id="path873" />
    <path
       id="path875"
       style="fill:none;stroke:#911eb4;stroke-width:0.264583"
       d="m 143.10715,127 a 2.5,2.5 0 0 1 -2.5,2.5 2.5,2.5 0 0 1 -2.5,-2.5 2.5,2.5 0 0 1 2.5,-2.5 2.5,2.5 0 0 1 2.5,2.5 z" />
  </g>
</svg>
