<?xml version="1.0" encoding="UTF-8" standalone="no"?>
<svg
   width="126.18011mm"
   height="127.35004mm"
   viewBox="0 0 126.18011 127.35004"
   version="1.1"
   id="svg6610"
   inkscape:version="1.1.1 (3bf5ae0d25, 2021-09-20)"
   sodipodi:docname="Cog2.svg"
   xmlns:inkscape="http://www.inkscape.org/namespaces/inkscape"
   xmlns:sodipodi="http://sodipodi.sourceforge.net/DTD/sodipodi-0.dtd"
   xmlns="http://www.w3.org/2000/svg"
   xmlns:svg="http://www.w3.org/2000/svg"
   xmlns:rdf="http://www.w3.org/1999/02/22-rdf-syntax-ns#"
   xmlns:cc="http://creativecommons.org/ns#"
   xmlns:dc="http://purl.org/dc/elements/1.1/">
  <defs
     id="defs6604" />
  <sodipodi:namedview
     id="base"
     pagecolor="#ffffff"
     bordercolor="#666666"
     borderopacity="1.0"
     inkscape:pageopacity="0.0"
     inkscape:pageshadow="2"
     inkscape:zoom="1.4"
     inkscape:cx="278.21429"
     inkscape:cy="223.92857"
     inkscape:document-units="mm"
     inkscape:current-layer="layer1"
     inkscape:document-rotation="0"
     showgrid="false"
     inkscape:window-width="2560"
     inkscape:window-height="1529"
     inkscape:window-x="-8"
     inkscape:window-y="-8"
     inkscape:window-maximized="1"
     inkscape:pagecheckerboard="0" />
  <metadata
     id="metadata6607">
    <rdf:RDF>
      <cc:Work
         rdf:about="">
        <dc:format>image/svg+xml</dc:format>
        <dc:type
           rdf:resource="http://purl.org/dc/dcmitype/StillImage" />
      </cc:Work>
    </rdf:RDF>
  </metadata>
  <g
     inkscape:label="Layer 1"
     inkscape:groupmode="layer"
     id="layer1"
     transform="translate(-62.398043,-86.759505)">
    <g
       id="g73371"
       style="stroke:#f032e6"
       transform="translate(19.277097,2.645523)">
      <path
         style="fill:none;stroke:#f032e6;stroke-width:0.1;stroke-miterlimit:4;stroke-dasharray:none"
         d="m 157.00731,151.47116 2.90316,0.21043 3.37833,1.10107 5.9573,3.91828 -0.75342,4.27285 -6.93816,1.64446 -3.55118,-0.12079 -2.80005,-0.79519 -2.51874,6.92018 2.65618,1.19074 2.79791,2.19002 4.2579,5.71957 -2.16934,3.75748 -7.08225,-0.8278 -3.29557,-1.32794 -2.35928,-1.70499 -4.73373,5.64141 2.08868,2.02739 1.88023,3.0149 2.0449,6.83087 -3.32369,2.78892 -6.37201,-3.2001 -2.64262,-2.37507 -1.6339,-2.40903 -6.37769,3.68217 1.26942,2.61943 0.73554,3.47623 -0.41469,7.11834 -4.07703,1.48397 -4.89331,-5.18651 -1.67088,-3.13568 -0.71147,-2.82262 -7.25235,1.27887 0.29689,2.89564 -0.49778,3.51811 -2.82422,6.54725 -4.33877,-2e-5 -2.82428,-6.5472 -0.49769,-3.51817 0.29687,-2.89564 -7.252415,-1.2788 -0.711398,2.82255 -1.670958,3.13578 -4.893227,5.18639 -4.077119,-1.48393 -0.414612,-7.11834 0.735508,-3.47619 1.269351,-2.61947 -6.377583,-3.6822 -1.633953,2.40907 -2.642579,2.3751 -6.372101,3.20011 -3.323604,-2.7889 2.044936,-6.83088 1.880117,-3.01503 2.088768,-2.02728 -4.733696,-5.64141 -2.359298,1.70492 -3.295573,1.328 -7.082234,0.82776 -2.169375,-3.75749 4.257871,-5.71952 2.797998,-2.19001 2.656125,-1.19076 -2.518783,-6.92021 -2.800133,0.79524 -3.551008,0.12071 -6.938261,-1.6444 -0.753375,-4.27284 5.957319,-3.91835 3.378211,-1.101 2.903251,-0.21046 -10e-7,-7.36431 -2.903163,-0.21043 -3.378326,-1.10107 -5.957303,-3.91828 0.753418,-4.27285 6.938165,-1.64446 3.551175,0.12079 2.800055,0.79519 2.518743,-6.92018 -2.656185,-1.19074 -2.797913,-2.19002 -4.257894,-5.71957 2.169337,-3.75748 7.08225,0.82779 3.295572,1.32795 2.359275,1.70499 4.733735,-5.64141 -2.088678,-2.02739 -1.880233,-3.0149 -2.044898,-6.83087 3.323685,-2.78892 6.372012,3.2001 2.642621,2.37507 1.633901,2.40903 6.377692,-3.68217 -1.269426,-2.619428 -0.735532,-3.476236 0.414685,-7.118334 4.077029,-1.483976 4.893313,5.186509 1.670879,3.135683 0.711464,2.822627 7.252356,-1.278871 -0.29689,-2.895645 0.49778,-3.51811 2.82422,-6.547247 4.33877,2.1e-5 2.82428,6.547197 0.49769,3.518171 -0.29688,2.89564 7.25242,1.278798 0.7114,-2.822548 1.67096,-3.135781 4.89323,-5.186393 4.07712,1.483928 0.41461,7.118341 -0.73551,3.476191 -1.26935,2.619473 6.37758,3.6822 1.63396,-2.40907 2.64257,-2.3751 6.3721,-3.200115 3.32361,2.788905 -2.04494,6.83088 -1.88011,3.01503 -2.08877,2.02728 4.73369,5.64141 2.3593,-1.70492 3.29557,-1.328 7.08224,-0.82776 2.16937,3.75749 -4.25787,5.71952 -2.79799,2.19001 -2.65613,1.19076 2.51878,6.92021 2.80014,-0.79524 3.551,-0.12071 6.93827,1.6444 0.75337,4.27284 -5.95732,3.91835 -3.37821,1.101 -2.90325,0.21046 z"
         id="path922" />
      <path
         style="fill:none;stroke:#f032e6;stroke-width:0.1;stroke-miterlimit:4;stroke-dasharray:none"
         id="path924"
         cx="0"
         cy="0"
         r="2.5"
         d="" />
    </g>
    <path
       id="circle73343"
       style="fill:none;stroke:#911eb4;stroke-width:0.264583"
       d="m 127.98811,150.43452 a 2.5,2.5 0 0 1 -2.5,2.5 2.5,2.5 0 0 1 -2.5,-2.5 2.5,2.5 0 0 1 2.5,-2.5 2.5,2.5 0 0 1 2.5,2.5 z" />
  </g>
</svg>
