<?xml version="1.0" encoding="UTF-8" standalone="no"?>
<svg xmlns="http://www.w3.org/2000/svg" width="63.9119987487793mm" height="49.18000030517578mm" viewBox="0 0 63.9119987487793 49.18000030517578">
<desc>Created with Glowforge for Fusion 360. To download visit: https://cam.autodesk.com/hsmposts?p=glowforge</desc>
<!-- CAM Setup Info:
Work Area Width: 63.9119987487793mm
Work Area Height: 49.18000030517578mm
Work Area Too Small?: false
Stock box Upper Right: 29.95599937438965,22.59000015258789
Stock box Lower Left: -29.95599937438965,-22.59000015258789
Origin: 0,0
Selected Colors: #0000d3, #02abea, #1fb714, #dd0907, #f20884, #fbf305
-->
<g id="global-translation-frame" transform="translate(31.956, 24.59) scale(1, -1)">
<g id="opperation-1">
    <title>2D Profile4 (Op: 1/3)</title>
    <path d="M 27.051 -18.76
             A 0.925 0.925 0 0 1 26.126 -19.685
             A 0.925 0.925 0 0 1 27.051 -20.61
             A 0.925 0.925 0 0 1 27.976 -19.685
             A 0.925 0.925 0 0 1 27.051 -18.76
             M 26.616 18.869
             A 0.925 0.925 0 0 1 27.867 19.25
             A 0.925 0.925 0 0 1 27.486 20.501
             A 0.925 0.925 0 0 1 26.235 20.12
             A 0.925 0.925 0 0 1 26.616 18.869
             M -26.235 19.25
             A 0.925 0.925 0 0 1 -26.616 20.501
             A 0.925 0.925 0 0 1 -27.867 20.12
             A 0.925 0.925 0 0 1 -27.486 18.869
             A 0.925 0.925 0 0 1 -26.235 19.25
             M -27.032 -18.76
             A 0.925 0.925 0 0 1 -27.976 -19.666
             A 0.925 0.925 0 0 1 -27.07 -20.61
             A 0.925 0.925 0 0 1 -26.126 -19.704
             A 0.925 0.925 0 0 1 -27.032 -18.76" fill="none" stroke="#0000d3" stroke-width="0.1"/>
</g>
<g id="opperation-2">
    <title>2D Profile5 (Op: 2/3)</title>
    <path d="M 23.876 -5.171
             A 0.925 0.925 0 0 1 22.951 -6.096
             A 0.925 0.925 0 0 1 23.876 -7.021
             A 0.925 0.925 0 0 1 24.801 -6.096
             A 0.925 0.925 0 0 1 23.876 -5.171
             M 23.441 5.28
             A 0.925 0.925 0 0 1 24.692 5.661
             A 0.925 0.925 0 0 1 24.311 6.912
             A 0.925 0.925 0 0 1 23.06 6.531
             A 0.925 0.925 0 0 1 23.441 5.28
             M -23.06 5.661
             A 0.925 0.925 0 0 1 -23.441 6.912
             A 0.925 0.925 0 0 1 -24.692 6.531
             A 0.925 0.925 0 0 1 -24.311 5.28
             A 0.925 0.925 0 0 1 -23.06 5.661
             M -23.812 -5.173
             A 0.925 0.925 0 0 1 -24.799 -6.032
             A 0.925 0.925 0 0 1 -23.94 -7.019
             A 0.925 0.925 0 0 1 -22.953 -6.16
             A 0.925 0.925 0 0 1 -23.812 -5.173" fill="none" stroke="#02abea" stroke-width="0.1"/>
</g>
<g id="opperation-3">
    <title>2D Profile6 (Op: 3/3)</title>
    <path d="M 26.956 21.665
             A 2.075 2.075 0 0 0 29.031 19.59
             L 29.031 -19.59
             A 2.075 2.075 0 0 0 26.956 -21.665
             L -26.956 -21.665
             A 2.075 2.075 0 0 0 -29.031 -19.59
             L -29.031 19.59
             A 2.075 2.075 0 0 0 -26.956 21.665
             L 26.956 21.665" fill="none" stroke="#1fb714" stroke-width="0.1"/>
</g>
</g>
</svg>
