<?xml version="1.0" encoding="UTF-8" standalone="no"?>
<svg
   width="279mm"
   height="495mm"
   viewBox="0 0 279 495"
   version="1.1"
   id="svg6610"
   inkscape:version="1.1.1 (3bf5ae0d25, 2021-09-20)"
   sodipodi:docname="Switches.svg"
   xmlns:inkscape="http://www.inkscape.org/namespaces/inkscape"
   xmlns:sodipodi="http://sodipodi.sourceforge.net/DTD/sodipodi-0.dtd"
   xmlns:xlink="http://www.w3.org/1999/xlink"
   xmlns="http://www.w3.org/2000/svg"
   xmlns:svg="http://www.w3.org/2000/svg"
   xmlns:rdf="http://www.w3.org/1999/02/22-rdf-syntax-ns#"
   xmlns:cc="http://creativecommons.org/ns#"
   xmlns:dc="http://purl.org/dc/elements/1.1/">
  <defs
     id="defs6604">
    <marker
       style="overflow:visible;"
       id="marker20840"
       refX="0.0"
       refY="0.0"
       orient="auto"
       inkscape:stockid="Arrow1Lend"
       inkscape:isstock="true">
      <path
         transform="scale(0.8) rotate(180) translate(12.5,0)"
         style="fill-rule:evenodd;fill:context-stroke;stroke:context-stroke;stroke-width:1.0pt;"
         d="M 0.0,0.0 L 5.0,-5.0 L -12.5,0.0 L 5.0,5.0 L 0.0,0.0 z "
         id="path20838" />
    </marker>
    <marker
       style="overflow:visible"
       id="Arrow1Lstart"
       refX="0.0"
       refY="0.0"
       orient="auto"
       inkscape:stockid="Arrow1Lstart"
       inkscape:isstock="true">
      <path
         transform="scale(0.8) translate(12.5,0)"
         style="fill-rule:evenodd;fill:context-stroke;stroke:context-stroke;stroke-width:1.0pt"
         d="M 0.0,0.0 L 5.0,-5.0 L -12.5,0.0 L 5.0,5.0 L 0.0,0.0 z "
         id="path20552" />
    </marker>
    <marker
       style="overflow:visible;"
       id="marker20822"
       refX="0.0"
       refY="0.0"
       orient="auto"
       inkscape:stockid="Arrow1Lend"
       inkscape:isstock="true">
      <path
         transform="scale(0.8) rotate(180) translate(12.5,0)"
         style="fill-rule:evenodd;fill:context-stroke;stroke:context-stroke;stroke-width:1.0pt;"
         d="M 0.0,0.0 L 5.0,-5.0 L -12.5,0.0 L 5.0,5.0 L 0.0,0.0 z "
         id="path20820" />
    </marker>
    <marker
       style="overflow:visible;"
       id="Arrow1Lend"
       refX="0.0"
       refY="0.0"
       orient="auto"
       inkscape:stockid="Arrow1Lend"
       inkscape:isstock="true">
      <path
         transform="scale(0.8) rotate(180) translate(12.5,0)"
         style="fill-rule:evenodd;fill:context-stroke;stroke:context-stroke;stroke-width:1.0pt;"
         d="M 0.0,0.0 L 5.0,-5.0 L -12.5,0.0 L 5.0,5.0 L 0.0,0.0 z "
         id="path20555" />
    </marker>
  </defs>
  <sodipodi:namedview
     id="base"
     pagecolor="#ffffff"
     bordercolor="#666666"
     borderopacity="1.0"
     inkscape:pageopacity="0.0"
     inkscape:pageshadow="2"
     inkscape:zoom="1.4"
     inkscape:cx="546.07143"
     inkscape:cy="616.78571"
     inkscape:document-units="mm"
     inkscape:current-layer="layer1"
     inkscape:document-rotation="0"
     showgrid="false"
     inkscape:window-width="2560"
     inkscape:window-height="1529"
     inkscape:window-x="-8"
     inkscape:window-y="-8"
     inkscape:window-maximized="1"
     inkscape:pagecheckerboard="0"
     showguides="true"
     inkscape:guide-bbox="true"
     inkscape:snap-midpoints="true"
     inkscape:object-paths="true"
     inkscape:snap-center="true">
    <sodipodi:guide
       position="110.74703,457.58037"
       orientation="0,-1"
       id="guide926" />
    <sodipodi:guide
       position="110.74703,457.58037"
       orientation="1,0"
       id="guide928" />
    <sodipodi:guide
       position="110.74703,216.28037"
       orientation="0,-1"
       id="guide930" />
    <sodipodi:guide
       position="47.247026,336.93037"
       orientation="1,0"
       id="guide932" />
    <sodipodi:guide
       position="174.24703,336.93037"
       orientation="1,0"
       id="guide934" />
    <sodipodi:guide
       position="110.74703,451.58037"
       orientation="0,1"
       id="guide936"
       inkscape:label=""
       inkscape:locked="false"
       inkscape:color="rgb(0,0,255)" />
    <sodipodi:guide
       position="53.247026,336.93037"
       orientation="-1,0"
       id="guide938"
       inkscape:label=""
       inkscape:locked="false"
       inkscape:color="rgb(0,0,255)" />
    <sodipodi:guide
       position="168.24703,336.93037"
       orientation="-1,0"
       id="guide940"
       inkscape:label=""
       inkscape:locked="false"
       inkscape:color="rgb(0,0,255)" />
    <sodipodi:guide
       position="110.74703,222.28037"
       orientation="0,1"
       id="guide942"
       inkscape:label=""
       inkscape:locked="false"
       inkscape:color="rgb(0,0,255)" />
    <sodipodi:guide
       position="110.74703,426.18037"
       orientation="0,1"
       id="guide1094"
       inkscape:label=""
       inkscape:locked="false"
       inkscape:color="rgb(0,0,255)" />
    <sodipodi:guide
       position="65.947026,336.93037"
       orientation="-1,0"
       id="guide1096"
       inkscape:label=""
       inkscape:locked="false"
       inkscape:color="rgb(0,0,255)" />
    <sodipodi:guide
       position="155.54703,336.93037"
       orientation="-1,0"
       id="guide1098"
       inkscape:label=""
       inkscape:locked="false"
       inkscape:color="rgb(0,0,255)" />
    <sodipodi:guide
       position="110.74703,413.48037"
       orientation="0,1"
       id="guide7319"
       inkscape:label=""
       inkscape:locked="false"
       inkscape:color="rgb(0,0,255)" />
    <sodipodi:guide
       position="110.74702,372.85784"
       orientation="0,-1"
       id="guide16755" />
    <sodipodi:guide
       position="108.10124,382.85683"
       orientation="0,-1"
       id="guide16757" />
    <sodipodi:guide
       position="62.646198,339.27382"
       orientation="1,0"
       id="guide16778" />
    <sodipodi:guide
       position="158.84175,347.02224"
       orientation="1,0"
       id="guide16780" />
    <sodipodi:guide
       position="107.15622,240.85596"
       orientation="0,1"
       id="guide16782"
       inkscape:label=""
       inkscape:locked="false"
       inkscape:color="rgb(0,0,255)" />
    <sodipodi:guide
       position="108.10124,377.85683"
       orientation="0,1"
       id="guide17150"
       inkscape:label=""
       inkscape:locked="false"
       inkscape:color="rgb(0,0,255)" />
    <sodipodi:guide
       position="67.646198,339.27382"
       orientation="-1,0"
       id="guide17152"
       inkscape:label=""
       inkscape:locked="false"
       inkscape:color="rgb(0,0,255)" />
    <sodipodi:guide
       position="153.84175,347.02224"
       orientation="-1,0"
       id="guide17282"
       inkscape:label=""
       inkscape:locked="false"
       inkscape:color="rgb(0,0,255)" />
  </sodipodi:namedview>
  <metadata
     id="metadata6607">
    <rdf:RDF>
      <cc:Work
         rdf:about="">
        <dc:format>image/svg+xml</dc:format>
        <dc:type
           rdf:resource="http://purl.org/dc/dcmitype/StillImage" />
      </cc:Work>
    </rdf:RDF>
  </metadata>
  <g
     inkscape:label="Layer 1"
     inkscape:groupmode="layer"
     id="layer1"
     style="display:inline">
    <g
       id="g16575">
      <rect
         style="fill:none;stroke:#f032e6;stroke-width:0.499999;stroke-miterlimit:3"
         id="rect844"
         width="127"
         height="241.3"
         x="47.247025"
         y="37.419643"
         rx="3"
         ry="3" />
      <circle
         style="fill:none;stroke:#911eb4;stroke-width:0.499999;stroke-miterlimit:3"
         id="path984"
         cx="168.24702"
         cy="272.71964"
         r="1.5" />
      <circle
         style="fill:none;stroke:#911eb4;stroke-width:0.499999;stroke-miterlimit:3"
         id="circle1088"
         cx="53.247025"
         cy="272.71964"
         r="1.5" />
      <circle
         style="fill:none;stroke:#911eb4;stroke-width:0.499999;stroke-miterlimit:3"
         id="circle1090"
         cx="53.247025"
         cy="43.419643"
         r="1.5" />
      <circle
         style="fill:none;stroke:#911eb4;stroke-width:0.499999;stroke-miterlimit:3"
         id="circle1092"
         cx="168.24702"
         cy="43.419643"
         r="1.5" />
    </g>
    <g
       id="g16589">
      <circle
         style="fill:none;stroke:#911eb4;stroke-width:0.499999;stroke-miterlimit:3"
         id="path1122"
         cx="65.947021"
         cy="68.819641"
         r="2.8" />
      <circle
         style="fill:none;stroke:#911eb4;stroke-width:0.499999;stroke-miterlimit:3"
         id="circle1204"
         cx="155.54703"
         cy="68.819641"
         r="2.8" />
      <circle
         style="fill:none;stroke:#911eb4;stroke-width:0.499999;stroke-miterlimit:3"
         id="circle1206"
         cx="133.14702"
         cy="68.819641"
         r="2.8" />
      <circle
         style="fill:none;stroke:#911eb4;stroke-width:0.499999;stroke-miterlimit:3"
         id="circle1208"
         cx="110.74702"
         cy="68.819641"
         r="2.8" />
      <circle
         style="fill:none;stroke:#911eb4;stroke-width:0.499999;stroke-miterlimit:3"
         id="circle1210"
         cx="88.347023"
         cy="68.819641"
         r="2.8" />
    </g>
    <g
       id="g16601"
       style="fill:#008080;stroke:none">
      <g
         aria-label="NC2"
         id="text2330"
         style="font-size:4.23333px;line-height:1.25;font-family:'Arial Rounded MT Bold';-inkscape-font-specification:'Arial Rounded MT Bold, ';letter-spacing:0px;word-spacing:0px;fill:#008080;stroke:none;stroke-width:0.264583">
        <path
           d="m 62.556018,56.306937 1.180289,1.785936 V 56.2904 q 0,-0.175699 0.07441,-0.262516 0.07648,-0.08888 0.204638,-0.08888 0.132292,0 0.208773,0.08888 0.07648,0.08682 0.07648,0.262516 v 2.383316 q 0,0.398941 -0.330729,0.398941 -0.08268,0 -0.148828,-0.0248 -0.06615,-0.02274 -0.124023,-0.07441 -0.05788,-0.05168 -0.107487,-0.11989 -0.04961,-0.07028 -0.09922,-0.142626 l -1.15135,-1.765266 v 1.775601 q 0,0.173632 -0.08062,0.262516 -0.08062,0.08888 -0.206705,0.08888 -0.130225,0 -0.208773,-0.08888 -0.07855,-0.09095 -0.07855,-0.262516 v -2.33784 q 0,-0.148828 0.03307,-0.233577 0.03927,-0.09302 0.130224,-0.150895 0.09095,-0.05994 0.196371,-0.05994 0.08268,0 0.140559,0.02687 0.05994,0.02687 0.103353,0.07235 0.04547,0.04547 0.09095,0.117822 0.04754,0.07235 0.09715,0.150895 z"
           id="path21288"
           style="fill:#008080;stroke:none" />
        <path
           d="m 67.554158,58.063934 q 0,0.144694 -0.07235,0.314193 -0.07028,0.167431 -0.223242,0.330728 -0.152962,0.161231 -0.390673,0.262517 -0.237711,0.101285 -0.553971,0.101285 -0.239778,0 -0.436149,-0.04547 -0.19637,-0.04548 -0.3576,-0.14056 -0.159164,-0.09715 -0.293522,-0.254248 -0.119889,-0.142626 -0.204639,-0.318326 -0.08475,-0.177767 -0.128157,-0.378271 -0.04134,-0.200505 -0.04134,-0.425814 0,-0.365869 0.10542,-0.655256 0.107487,-0.289388 0.305924,-0.494027 0.198437,-0.206705 0.465087,-0.314192 0.266651,-0.107487 0.568441,-0.107487 0.367936,0 0.655256,0.146761 0.287321,0.146761 0.440283,0.363802 0.152962,0.214974 0.152962,0.40721 0,0.10542 -0.07441,0.186035 -0.07441,0.08062 -0.179834,0.08062 -0.117822,0 -0.177766,-0.05581 -0.05788,-0.05581 -0.130225,-0.192236 -0.119889,-0.225309 -0.283187,-0.33693 -0.16123,-0.111621 -0.398941,-0.111621 -0.378271,0 -0.60358,0.287321 -0.223242,0.287321 -0.223242,0.816487 0,0.353466 0.09922,0.589111 0.09922,0.233577 0.28112,0.349332 0.181901,0.115755 0.425813,0.115755 0.264583,0 0.446484,-0.130224 0.183968,-0.132292 0.276986,-0.38654 0.03927,-0.119889 0.09715,-0.194303 0.05788,-0.07648 0.186035,-0.07648 0.109554,0 0.188102,0.07648 0.07855,0.07648 0.07855,0.190169 z"
           id="path21290"
           style="fill:#008080;stroke:none" />
        <path
           d="m 68.719978,58.533156 h 1.079003 q 0.16123,0 0.245979,0.06615 0.08475,0.06614 0.08475,0.179833 0,0.101286 -0.06821,0.171566 -0.06615,0.07028 -0.202572,0.07028 h -1.521352 q -0.15503,0 -0.241846,-0.08475 -0.08682,-0.08682 -0.08682,-0.202572 0,-0.07441 0.05581,-0.19637 0.05581,-0.124023 0.121956,-0.194303 0.274919,-0.285254 0.496094,-0.487825 0.221175,-0.204639 0.316259,-0.268718 0.169499,-0.119889 0.28112,-0.239778 0.113688,-0.121956 0.171565,-0.248047 0.05995,-0.128157 0.05995,-0.250114 0,-0.132291 -0.06408,-0.235644 -0.06201,-0.10542 -0.171565,-0.163297 -0.107487,-0.05788 -0.235645,-0.05788 -0.270784,0 -0.425813,0.237712 -0.02067,0.03101 -0.07028,0.169498 -0.04754,0.138493 -0.109554,0.212907 -0.05994,0.07441 -0.177767,0.07441 -0.103352,0 -0.171565,-0.06821 -0.06821,-0.06821 -0.06821,-0.186035 0,-0.142627 0.06408,-0.297656 0.06408,-0.155029 0.190169,-0.28112 0.128157,-0.12609 0.32246,-0.202571 0.196371,-0.07855 0.458887,-0.07855 0.316259,0 0.539501,0.09922 0.144694,0.06615 0.254248,0.1819 0.109554,0.115756 0.169499,0.268718 0.06201,0.150895 0.06201,0.314192 0,0.256315 -0.128157,0.467155 -0.126091,0.208772 -0.258382,0.328662 -0.132292,0.117822 -0.444417,0.37207 -0.310058,0.254247 -0.425813,0.394807 -0.04961,0.05581 -0.101286,0.134359 z"
           id="path21292"
           style="fill:#008080;stroke:none" />
      </g>
      <g
         aria-label="IR6"
         id="text4138"
         style="font-size:4.23333px;line-height:1.25;font-family:'Arial Rounded MT Bold';-inkscape-font-specification:'Arial Rounded MT Bold, ';letter-spacing:0px;word-spacing:0px;fill:#008080;stroke:none;stroke-width:0.264583">
        <path
           d="m 85.160656,58.69852 v -2.387449 q 0,-0.186035 0.08475,-0.279052 0.08475,-0.09302 0.219108,-0.09302 0.138493,0 0.223242,0.09302 0.08682,0.09095 0.08682,0.279052 v 2.387449 q 0,0.188102 -0.08682,0.28112 -0.08475,0.09302 -0.223242,0.09302 -0.132291,0 -0.219108,-0.09302 -0.08475,-0.09509 -0.08475,-0.28112 z"
           id="path21295"
           style="fill:#008080;stroke:none" />
        <path
           d="m 87.285589,57.724937 h -0.214974 v 0.973583 q 0,0.192236 -0.08475,0.283187 -0.08475,0.09095 -0.221175,0.09095 -0.146761,0 -0.227376,-0.09508 -0.08062,-0.09508 -0.08062,-0.279053 v -2.331638 q 0,-0.198438 0.08888,-0.287321 0.08888,-0.08888 0.287321,-0.08888 h 0.998388 q 0.206705,0 0.353466,0.0186 0.146761,0.01654 0.264583,0.07028 0.142627,0.05994 0.252181,0.171565 0.109554,0.111621 0.165365,0.260449 0.05788,0.146761 0.05788,0.312126 0,0.338997 -0.192236,0.541568 -0.190169,0.202572 -0.578776,0.287321 0.163298,0.08682 0.312126,0.256315 0.148828,0.169499 0.264583,0.361735 0.117822,0.190169 0.181901,0.345198 0.06615,0.152962 0.06615,0.21084 0,0.05994 -0.03927,0.119889 -0.03721,0.05788 -0.103353,0.09095 -0.06615,0.03514 -0.152962,0.03514 -0.103353,0 -0.173633,-0.04961 -0.07028,-0.04754 -0.121956,-0.121956 -0.04961,-0.07441 -0.136426,-0.219108 l -0.24598,-0.409277 q -0.132291,-0.225309 -0.237711,-0.343131 -0.103353,-0.117823 -0.21084,-0.161231 -0.107487,-0.04341 -0.270784,-0.04341 z m 0.3514,-1.273306 h -0.566374 v 0.833023 h 0.549837 q 0.221175,0 0.37207,-0.03721 0.150895,-0.03927 0.229443,-0.130224 0.08062,-0.09302 0.08062,-0.254248 0,-0.126091 -0.06408,-0.221175 -0.06408,-0.09715 -0.177767,-0.144694 -0.107487,-0.04548 -0.423746,-0.04548 z"
           id="path21297"
           style="fill:#008080;stroke:none" />
        <path
           d="m 89.941756,57.381806 q 0.14056,-0.167432 0.305924,-0.248047 0.165364,-0.08061 0.370003,-0.08061 0.19637,0 0.361735,0.07441 0.167431,0.07235 0.291454,0.208773 0.126091,0.134358 0.194304,0.318326 0.06821,0.183968 0.06821,0.384472 0,0.291455 -0.134359,0.529167 -0.132292,0.237711 -0.37207,0.37207 -0.237711,0.132291 -0.539502,0.132291 -0.347265,0 -0.599446,-0.169498 -0.25218,-0.169499 -0.386539,-0.500228 -0.132292,-0.332796 -0.132292,-0.812353 0,-0.390673 0.08062,-0.698664 0.08061,-0.307992 0.23151,-0.510563 0.150895,-0.202572 0.365869,-0.305924 0.214973,-0.103353 0.489892,-0.103353 0.264583,0 0.465087,0.103353 0.202572,0.103352 0.303857,0.256315 0.103353,0.152962 0.103353,0.293521 0,0.08475 -0.06408,0.15503 -0.06408,0.06821 -0.163297,0.06821 -0.08682,0 -0.16123,-0.05374 -0.07441,-0.05581 -0.109554,-0.152962 -0.04754,-0.124023 -0.150895,-0.198437 -0.103353,-0.07648 -0.239779,-0.07648 -0.109554,0 -0.219108,0.06408 -0.107486,0.06201 -0.1819,0.169499 -0.150896,0.219108 -0.177767,0.781347 z m 0.558105,1.283641 q 0.208772,0 0.345198,-0.169498 0.136426,-0.171566 0.136426,-0.448551 0,-0.188102 -0.06408,-0.322461 -0.06408,-0.136426 -0.1757,-0.206706 -0.111621,-0.07235 -0.245979,-0.07235 -0.128158,0 -0.24598,0.06821 -0.115755,0.06821 -0.188102,0.198438 -0.07028,0.128157 -0.07028,0.30179 0,0.279052 0.144694,0.465087 0.144694,0.186035 0.363802,0.186035 z"
           id="path21299"
           style="fill:#008080;stroke:none" />
      </g>
      <g
         aria-label="VCALL10"
         id="text5396"
         style="font-size:4.23333px;line-height:1.25;font-family:'Arial Rounded MT Bold';-inkscape-font-specification:'Arial Rounded MT Bold, ';letter-spacing:0px;word-spacing:0px;fill:#008080;stroke:none;stroke-width:0.264583">
        <path
           d="m 101.9734,56.342077 0.68626,2.031915 0.68833,-2.046385 q 0.0538,-0.16123 0.0806,-0.223242 0.0269,-0.06408 0.0889,-0.113688 0.062,-0.05168 0.1695,-0.05168 0.0786,0 0.1447,0.03927 0.0682,0.03927 0.10542,0.10542 0.0393,0.06408 0.0393,0.130224 0,0.04548 -0.0124,0.09922 -0.0124,0.05168 -0.031,0.103353 -0.0186,0.04961 -0.0372,0.103353 l -0.7338,1.980239 q -0.0393,0.113688 -0.0785,0.217041 -0.0393,0.101285 -0.091,0.179834 -0.0517,0.07648 -0.13849,0.12609 -0.0847,0.04961 -0.20877,0.04961 -0.12403,0 -0.21084,-0.04961 -0.0847,-0.04754 -0.1385,-0.12609 -0.0517,-0.08062 -0.091,-0.181901 -0.0393,-0.101286 -0.0785,-0.214974 l -0.7214,-1.963703 q -0.0186,-0.05374 -0.0393,-0.10542 -0.0186,-0.05168 -0.0331,-0.111621 -0.0124,-0.05994 -0.0124,-0.101285 0,-0.10542 0.0847,-0.192237 0.0847,-0.08682 0.21291,-0.08682 0.15709,0 0.22117,0.09715 0.0662,0.09508 0.13436,0.305924 z"
           id="path21302"
           style="fill:#008080;stroke:none" />
        <path
           d="m 106.96327,58.063934 q 0,0.144694 -0.0723,0.314193 -0.0703,0.167431 -0.22324,0.330728 -0.15297,0.161231 -0.39068,0.262517 -0.23771,0.101285 -0.55397,0.101285 -0.23978,0 -0.43615,-0.04547 -0.19637,-0.04548 -0.3576,-0.14056 -0.15916,-0.09715 -0.29352,-0.254248 -0.11989,-0.142626 -0.20464,-0.318326 -0.0847,-0.177767 -0.12816,-0.378271 -0.0413,-0.200505 -0.0413,-0.425814 0,-0.365869 0.10542,-0.655256 0.10749,-0.289388 0.30593,-0.494027 0.19843,-0.206705 0.46508,-0.314192 0.26665,-0.107487 0.56844,-0.107487 0.36794,0 0.65526,0.146761 0.28732,0.146761 0.44028,0.363802 0.15297,0.214974 0.15297,0.40721 0,0.10542 -0.0744,0.186035 -0.0744,0.08062 -0.17983,0.08062 -0.11782,0 -0.17777,-0.05581 -0.0579,-0.05581 -0.13022,-0.192236 -0.11989,-0.225309 -0.28319,-0.33693 -0.16123,-0.111621 -0.39894,-0.111621 -0.37827,0 -0.60358,0.287321 -0.22324,0.287321 -0.22324,0.816487 0,0.353466 0.0992,0.589111 0.0992,0.233577 0.28111,0.349332 0.18191,0.115755 0.42582,0.115755 0.26458,0 0.44648,-0.130224 0.18397,-0.132292 0.27699,-0.38654 0.0393,-0.119889 0.0971,-0.194303 0.0579,-0.07648 0.18603,-0.07648 0.10956,0 0.18811,0.07648 0.0785,0.07648 0.0785,0.190169 z"
           id="path21304"
           style="fill:#008080;stroke:none" />
        <path
           d="m 109.45408,58.67785 -0.1447,-0.380339 h -1.23196 l -0.1447,0.388607 q -0.0847,0.227376 -0.14469,0.307991 -0.06,0.07855 -0.19637,0.07855 -0.11576,0 -0.20464,-0.08475 -0.0889,-0.08475 -0.0889,-0.192236 0,-0.06201 0.0207,-0.128158 0.0207,-0.06614 0.0682,-0.183968 l 0.77515,-1.967836 q 0.0331,-0.08475 0.0785,-0.202572 0.0475,-0.119889 0.0992,-0.198437 0.0538,-0.07855 0.1385,-0.126091 0.0868,-0.04961 0.2129,-0.04961 0.12816,0 0.21291,0.04961 0.0868,0.04754 0.13849,0.124024 0.0537,0.07648 0.0889,0.165364 0.0372,0.08682 0.093,0.233577 l 0.79169,1.955435 q 0.093,0.223242 0.093,0.324528 0,0.10542 -0.0889,0.194303 -0.0868,0.08682 -0.21084,0.08682 -0.0724,0 -0.12402,-0.02687 -0.0517,-0.02481 -0.0868,-0.06821 -0.0351,-0.04548 -0.0765,-0.136426 -0.0393,-0.09302 -0.0682,-0.163297 z m -1.21543,-0.841292 h 0.90537 l -0.45682,-1.250569 z"
           id="path21306"
           style="fill:#008080;stroke:none" />
        <path
           d="m 111.16146,56.311071 v 2.205548 h 1.24437 q 0.14883,0 0.22738,0.07235 0.0806,0.07235 0.0806,0.181901 0,0.111621 -0.0785,0.181901 -0.0785,0.06821 -0.22944,0.06821 h -1.48208 q -0.2005,0 -0.28938,-0.08888 -0.0868,-0.08888 -0.0868,-0.28732 v -2.333706 q 0,-0.186035 0.0827,-0.279052 0.0847,-0.09302 0.22118,-0.09302 0.13849,0 0.22324,0.09302 0.0868,0.09095 0.0868,0.279052 z"
           id="path21308"
           style="fill:#008080;stroke:none" />
        <path
           d="m 113.71841,56.311071 v 2.205548 h 1.24437 q 0.14883,0 0.22738,0.07235 0.0806,0.07235 0.0806,0.181901 0,0.111621 -0.0785,0.181901 -0.0786,0.06821 -0.22944,0.06821 h -1.48208 q -0.2005,0 -0.28939,-0.08888 -0.0868,-0.08888 -0.0868,-0.28732 v -2.333706 q 0,-0.186035 0.0827,-0.279052 0.0847,-0.09302 0.22117,-0.09302 0.1385,0 0.22325,0.09302 0.0868,0.09095 0.0868,0.279052 z"
           id="path21310"
           style="fill:#008080;stroke:none" />
        <path
           d="m 116.53788,58.737794 v -1.88102 q -0.52504,0.403076 -0.70694,0.403076 -0.0868,0 -0.15503,-0.06821 -0.0661,-0.07028 -0.0661,-0.161231 0,-0.105419 0.0661,-0.155029 0.0661,-0.04961 0.23358,-0.128157 0.25011,-0.117822 0.39894,-0.248047 0.1509,-0.130224 0.26665,-0.291455 0.11576,-0.16123 0.1509,-0.198437 0.0351,-0.03721 0.13229,-0.03721 0.10955,0 0.1757,0.08475 0.0661,0.08475 0.0661,0.233577 v 2.366779 q 0,0.415478 -0.28318,0.415478 -0.12609,0 -0.20257,-0.08475 -0.0765,-0.08475 -0.0765,-0.250114 z"
           id="path21312"
           style="fill:#008080;stroke:none" />
        <path
           d="m 120.17383,57.534768 q 0,0.338997 -0.0413,0.58291 -0.0414,0.243912 -0.15297,0.442349 -0.14056,0.243913 -0.3638,0.376205 -0.22324,0.132291 -0.49609,0.132291 -0.31419,0 -0.56431,-0.177767 -0.24804,-0.177766 -0.37413,-0.491959 -0.0641,-0.171565 -0.0951,-0.378271 -0.0289,-0.208773 -0.0289,-0.450618 0,-0.312126 0.0331,-0.562239 0.0331,-0.250114 0.10336,-0.429948 0.12195,-0.297656 0.35346,-0.452685 0.23358,-0.157096 0.55604,-0.157096 0.21291,0 0.38654,0.07028 0.17363,0.06821 0.30386,0.202571 0.13229,0.132292 0.22324,0.328662 0.1571,0.341064 0.1571,0.965315 z m -0.56638,-0.04134 q 0,-0.378271 -0.0455,-0.61805 -0.0455,-0.241845 -0.15296,-0.363802 -0.10749,-0.124023 -0.29766,-0.124023 -0.27285,0 -0.38034,0.274918 -0.10542,0.274919 -0.10542,0.847493 0,0.388607 0.0455,0.636653 0.0455,0.248047 0.15296,0.376204 0.10749,0.126091 0.29145,0.126091 0.19017,0 0.29766,-0.132292 0.10749,-0.132291 0.1509,-0.378271 0.0434,-0.245979 0.0434,-0.644921 z"
           id="path21314"
           style="fill:#008080;stroke:none" />
      </g>
      <g
         aria-label="VMED28"
         id="text5950"
         style="font-size:4.23333px;line-height:1.25;font-family:'Arial Rounded MT Bold';-inkscape-font-specification:'Arial Rounded MT Bold, ';letter-spacing:0px;word-spacing:0px;fill:#008080;stroke:none;stroke-width:0.264583">
        <path
           d="m 125.24157,56.342077 0.68626,2.031915 0.68833,-2.046385 q 0.0537,-0.16123 0.0806,-0.223242 0.0269,-0.06408 0.0889,-0.113688 0.062,-0.05168 0.1695,-0.05168 0.0785,0 0.14469,0.03927 0.0682,0.03927 0.10542,0.10542 0.0393,0.06408 0.0393,0.130224 0,0.04548 -0.0124,0.09922 -0.0124,0.05168 -0.031,0.103353 -0.0186,0.04961 -0.0372,0.103353 l -0.73381,1.980239 q -0.0393,0.113688 -0.0785,0.217041 -0.0393,0.101285 -0.0909,0.179834 -0.0517,0.07648 -0.1385,0.12609 -0.0847,0.04961 -0.20877,0.04961 -0.12402,0 -0.21084,-0.04961 -0.0848,-0.04754 -0.13849,-0.12609 -0.0517,-0.08062 -0.091,-0.181901 -0.0393,-0.101286 -0.0785,-0.214974 l -0.7214,-1.963703 q -0.0186,-0.05374 -0.0393,-0.10542 -0.0186,-0.05168 -0.0331,-0.111621 -0.0124,-0.05994 -0.0124,-0.101285 0,-0.10542 0.0847,-0.192237 0.0847,-0.08682 0.2129,-0.08682 0.1571,0 0.22118,0.09715 0.0662,0.09508 0.13436,0.305924 z"
           id="path21317"
           style="fill:#008080;stroke:none" />
        <path
           d="m 128.72869,58.564162 -0.48576,-1.93063 v 2.09186 q 0,0.173633 -0.0786,0.260449 -0.0765,0.08682 -0.20463,0.08682 -0.12403,0 -0.20258,-0.08475 -0.0785,-0.08682 -0.0785,-0.262516 V 56.32761 q 0,-0.198437 0.10335,-0.26665 0.10335,-0.07028 0.27905,-0.07028 h 0.19017 q 0.17157,0 0.24805,0.03101 0.0786,0.03101 0.11575,0.111621 0.0372,0.08061 0.0847,0.262516 l 0.44028,1.659846 0.44029,-1.659846 q 0.0475,-0.181901 0.0847,-0.262516 0.0372,-0.08062 0.11368,-0.111621 0.0786,-0.03101 0.25012,-0.03101 h 0.19017 q 0.1757,0 0.27905,0.07028 0.10335,0.06821 0.10335,0.26665 v 2.397785 q 0,0.173633 -0.0786,0.260449 -0.0765,0.08682 -0.2067,0.08682 -0.12196,0 -0.20051,-0.08682 -0.0785,-0.08682 -0.0785,-0.260449 v -2.09186 l -0.48576,1.93063 q -0.0475,0.188102 -0.0786,0.276985 -0.0289,0.08682 -0.10955,0.159163 -0.0806,0.07235 -0.22325,0.07235 -0.10748,0 -0.1819,-0.04754 -0.0744,-0.04547 -0.11575,-0.117822 -0.0413,-0.07235 -0.0661,-0.159163 -0.0227,-0.08888 -0.0475,-0.183968 z"
           id="path21319"
           style="fill:#008080;stroke:none" />
        <path
           d="m 133.22867,56.464033 h -1.38286 v 0.74414 h 1.27331 q 0.14056,0 0.20877,0.06408 0.0703,0.06201 0.0703,0.165364 0,0.103353 -0.0682,0.169499 -0.0682,0.06408 -0.21084,0.06408 h -1.27331 v 0.861962 h 1.4304 q 0.1447,0 0.21704,0.06821 0.0744,0.06614 0.0744,0.177766 0,0.107487 -0.0744,0.1757 -0.0723,0.06615 -0.21704,0.06615 h -1.66811 q -0.20051,0 -0.28939,-0.08888 -0.0868,-0.08888 -0.0868,-0.28732 v -2.277895 q 0,-0.132292 0.0393,-0.214974 0.0393,-0.08475 0.12196,-0.121957 0.0847,-0.03927 0.21497,-0.03927 h 1.62057 q 0.14676,0 0.21704,0.06615 0.0724,0.06408 0.0724,0.169499 0,0.107487 -0.0724,0.173632 -0.0703,0.06408 -0.21704,0.06408 z"
           id="path21321"
           style="fill:#008080;stroke:none" />
        <path
           d="m 134.43583,55.990677 h 0.79995 q 0.31213,0 0.53537,0.05788 0.22324,0.05788 0.40514,0.217041 0.47336,0.405143 0.47336,1.231965 0,0.272851 -0.0475,0.49816 -0.0476,0.225309 -0.14677,0.40721 -0.0992,0.179834 -0.25424,0.322461 -0.12196,0.109554 -0.26665,0.1757 -0.1447,0.06614 -0.31213,0.09302 -0.16536,0.02687 -0.37414,0.02687 h -0.79995 q -0.16743,0 -0.25218,-0.04961 -0.0848,-0.05168 -0.11162,-0.142627 -0.0248,-0.09302 -0.0248,-0.239779 v -2.222084 q 0,-0.198438 0.0889,-0.287321 0.0889,-0.08888 0.28732,-0.08888 z m 0.23771,0.485758 v 2.056721 h 0.46509 q 0.15296,0 0.23978,-0.0083 0.0868,-0.0083 0.17983,-0.04134 0.093,-0.03307 0.16123,-0.09302 0.30799,-0.260449 0.30799,-0.897102 0,-0.448551 -0.13642,-0.671793 -0.13436,-0.223242 -0.3328,-0.283187 -0.19844,-0.06201 -0.47955,-0.06201 z"
           id="path21323"
           style="fill:#008080;stroke:none" />
        <path
           d="m 137.80306,58.533156 h 1.07901 q 0.16123,0 0.24598,0.06615 0.0847,0.06614 0.0847,0.179833 0,0.101286 -0.0682,0.171566 -0.0661,0.07028 -0.20257,0.07028 h -1.52135 q -0.15503,0 -0.24185,-0.08475 -0.0868,-0.08682 -0.0868,-0.202572 0,-0.07441 0.0558,-0.19637 0.0558,-0.124023 0.12195,-0.194303 0.27492,-0.285254 0.4961,-0.487825 0.22117,-0.204639 0.31626,-0.268718 0.1695,-0.119889 0.28112,-0.239778 0.11368,-0.121956 0.17156,-0.248047 0.06,-0.128157 0.06,-0.250114 0,-0.132291 -0.0641,-0.235644 -0.062,-0.10542 -0.17157,-0.163297 -0.10748,-0.05788 -0.23564,-0.05788 -0.27079,0 -0.42582,0.237712 -0.0207,0.03101 -0.0703,0.169498 -0.0476,0.138493 -0.10956,0.212907 -0.0599,0.07441 -0.17777,0.07441 -0.10335,0 -0.17156,-0.06821 -0.0682,-0.06821 -0.0682,-0.186035 0,-0.142627 0.0641,-0.297656 0.0641,-0.155029 0.19017,-0.28112 0.12816,-0.12609 0.32246,-0.202571 0.19637,-0.07855 0.45889,-0.07855 0.31626,0 0.5395,0.09922 0.1447,0.06615 0.25425,0.1819 0.10955,0.115756 0.1695,0.268718 0.062,0.150895 0.062,0.314192 0,0.256315 -0.12816,0.467155 -0.12609,0.208772 -0.25838,0.328662 -0.13229,0.117822 -0.44442,0.37207 -0.31005,0.254247 -0.42581,0.394807 -0.0496,0.05581 -0.10129,0.134359 z"
           id="path21325"
           style="fill:#008080;stroke:none" />
        <path
           d="m 139.65721,56.759622 q 0,-0.206705 0.11162,-0.388606 0.11369,-0.183968 0.33073,-0.293522 0.21911,-0.109554 0.51057,-0.109554 0.24598,0 0.43201,0.06408 0.18604,0.06408 0.31006,0.177766 0.12402,0.111621 0.18397,0.254248 0.0599,0.14056 0.0599,0.299723 0,0.202572 -0.10542,0.361735 -0.10335,0.159163 -0.31006,0.260449 0.1757,0.06821 0.29146,0.179834 0.11575,0.109554 0.17363,0.256315 0.0599,0.144694 0.0599,0.32246 0,0.260449 -0.12609,0.473356 -0.12609,0.21084 -0.37001,0.330729 -0.24391,0.119889 -0.57464,0.119889 -0.34313,0 -0.58704,-0.119889 -0.24392,-0.119889 -0.36794,-0.328662 -0.12402,-0.21084 -0.12402,-0.471289 0,-0.556038 0.52503,-0.762743 -0.42375,-0.198437 -0.42375,-0.626318 z m 1.48208,1.368391 q 0,-0.16123 -0.0661,-0.28112 -0.0661,-0.119889 -0.18604,-0.183968 -0.11989,-0.06408 -0.26872,-0.06408 -0.21083,0 -0.35346,0.140559 -0.14263,0.14056 -0.14263,0.392741 0,0.16123 0.0661,0.285254 0.0682,0.121956 0.18397,0.190169 0.11575,0.06615 0.25838,0.06615 0.14469,0 0.26045,-0.06821 0.11575,-0.06821 0.1819,-0.192236 0.0661,-0.124024 0.0661,-0.285254 z m -0.51676,-1.765266 q -0.1943,0 -0.31419,0.121957 -0.11783,0.119889 -0.11783,0.310058 0,0.1757 0.12196,0.293522 0.12196,0.115755 0.31419,0.115755 0.0971,0 0.1757,-0.03101 0.0806,-0.03101 0.13643,-0.08475 0.0579,-0.05581 0.0889,-0.130225 0.031,-0.07648 0.031,-0.167431 0,-0.121956 -0.0558,-0.219108 -0.0538,-0.09715 -0.15297,-0.152962 -0.0992,-0.05581 -0.22737,-0.05581 z"
           id="path21327"
           style="fill:#008080;stroke:none" />
      </g>
      <g
         aria-label="7TAC55"
         id="text6174"
         style="font-size:4.23333px;line-height:1.25;font-family:'Arial Rounded MT Bold';-inkscape-font-specification:'Arial Rounded MT Bold, ';letter-spacing:0px;word-spacing:0px;fill:#008080;stroke:none;stroke-width:0.264583">
        <path
           d="m 148.13043,56.019616 h 1.37666 q 0.19844,0 0.28732,0.06201 0.0889,0.06201 0.0889,0.204638 0,0.08682 -0.10542,0.229444 -0.10335,0.142626 -0.23771,0.316259 -0.13229,0.171566 -0.27492,0.427881 -0.14056,0.256314 -0.25838,0.626317 -0.0496,0.163298 -0.0703,0.270785 -0.0207,0.107487 -0.0455,0.279052 -0.0248,0.171566 -0.0434,0.262516 -0.0434,0.21084 -0.12403,0.293522 -0.0785,0.08062 -0.21084,0.08062 -0.12609,0 -0.20257,-0.08682 -0.0765,-0.08888 -0.0765,-0.260449 0,-0.132292 0.0558,-0.359668 0.0558,-0.227376 0.1819,-0.543635 0.12609,-0.318327 0.3142,-0.651123 0.19017,-0.334863 0.45061,-0.665592 h -1.10587 q -0.17363,0 -0.26045,-0.06201 -0.0847,-0.06408 -0.0847,-0.198438 0,-0.142627 0.0909,-0.183968 0.0909,-0.04134 0.25425,-0.04134 z"
           id="path21330"
           style="fill:#008080;stroke:none" />
        <path
           d="m 152.28521,56.497106 h -0.66972 v 2.201414 q 0,0.190169 -0.0847,0.283187 -0.0848,0.09095 -0.21911,0.09095 -0.13643,0 -0.22324,-0.09302 -0.0848,-0.09302 -0.0848,-0.28112 v -2.201414 h -0.66973 q -0.1571,0 -0.23358,-0.06821 -0.0765,-0.07028 -0.0765,-0.183968 0,-0.117822 0.0785,-0.186035 0.0806,-0.06821 0.23151,-0.06821 h 1.9513 q 0.15916,0 0.23565,0.07028 0.0785,0.07028 0.0785,0.183968 0,0.113688 -0.0785,0.183968 -0.0786,0.06821 -0.23565,0.06821 z"
           id="path21332"
           style="fill:#008080;stroke:none" />
        <path
           d="m 154.63545,58.67785 -0.14469,-0.380339 h -1.23197 l -0.14469,0.388607 q -0.0848,0.227376 -0.14469,0.307991 -0.06,0.07855 -0.19637,0.07855 -0.11576,0 -0.20464,-0.08475 -0.0889,-0.08475 -0.0889,-0.192236 0,-0.06201 0.0207,-0.128158 0.0207,-0.06614 0.0682,-0.183968 l 0.77514,-1.967836 q 0.0331,-0.08475 0.0786,-0.202572 0.0475,-0.119889 0.0992,-0.198437 0.0537,-0.07855 0.13849,-0.126091 0.0868,-0.04961 0.21291,-0.04961 0.12816,0 0.21291,0.04961 0.0868,0.04754 0.13849,0.124024 0.0537,0.07648 0.0889,0.165364 0.0372,0.08682 0.093,0.233577 l 0.79168,1.955435 q 0.093,0.223242 0.093,0.324528 0,0.10542 -0.0889,0.194303 -0.0868,0.08682 -0.21084,0.08682 -0.0724,0 -0.12403,-0.02687 -0.0517,-0.02481 -0.0868,-0.06821 -0.0351,-0.04548 -0.0765,-0.136426 -0.0393,-0.09302 -0.0682,-0.163297 z m -1.21543,-0.841292 h 0.90537 l -0.45681,-1.250569 z"
           id="path21334"
           style="fill:#008080;stroke:none" />
        <path
           d="m 158.21766,58.063934 q 0,0.144694 -0.0724,0.314193 -0.0703,0.167431 -0.22324,0.330728 -0.15296,0.161231 -0.39067,0.262517 -0.23771,0.101285 -0.55397,0.101285 -0.23978,0 -0.43615,-0.04547 -0.19637,-0.04548 -0.3576,-0.14056 -0.15917,-0.09715 -0.29352,-0.254248 -0.11989,-0.142626 -0.20464,-0.318326 -0.0847,-0.177767 -0.12816,-0.378271 -0.0413,-0.200505 -0.0413,-0.425814 0,-0.365869 0.10542,-0.655256 0.10749,-0.289388 0.30592,-0.494027 0.19844,-0.206705 0.46509,-0.314192 0.26665,-0.107487 0.56844,-0.107487 0.36794,0 0.65526,0.146761 0.28732,0.146761 0.44028,0.363802 0.15296,0.214974 0.15296,0.40721 0,0.10542 -0.0744,0.186035 -0.0744,0.08062 -0.17984,0.08062 -0.11782,0 -0.17776,-0.05581 -0.0579,-0.05581 -0.13023,-0.192236 -0.11989,-0.225309 -0.28318,-0.33693 -0.16123,-0.111621 -0.39895,-0.111621 -0.37827,0 -0.60358,0.287321 -0.22324,0.287321 -0.22324,0.816487 0,0.353466 0.0992,0.589111 0.0992,0.233577 0.28112,0.349332 0.1819,0.115755 0.42581,0.115755 0.26459,0 0.44649,-0.130224 0.18397,-0.132292 0.27698,-0.38654 0.0393,-0.119889 0.0972,-0.194303 0.0579,-0.07648 0.18603,-0.07648 0.10955,0 0.1881,0.07648 0.0786,0.07648 0.0786,0.190169 z"
           id="path21336"
           style="fill:#008080;stroke:none" />
        <path
           d="m 160.3984,56.50124 h -0.98185 l -0.11782,0.669726 q 0.29352,-0.157096 0.54157,-0.157096 0.19844,0 0.37,0.07441 0.17363,0.07441 0.30386,0.206705 0.13022,0.130225 0.20464,0.310059 0.0744,0.179834 0.0744,0.386539 0,0.299723 -0.13436,0.545703 -0.13436,0.245979 -0.3886,0.390673 -0.25218,0.144694 -0.58291,0.144694 -0.37001,0 -0.60152,-0.136425 -0.22944,-0.136426 -0.32659,-0.312126 -0.0951,-0.177767 -0.0951,-0.310058 0,-0.08062 0.0661,-0.152962 0.0682,-0.07235 0.1695,-0.07235 0.17363,0 0.25838,0.200504 0.0827,0.183968 0.22324,0.287321 0.14056,0.101286 0.31419,0.101286 0.15917,0 0.27906,-0.08268 0.11989,-0.08268 0.18397,-0.227376 0.0661,-0.144694 0.0661,-0.328662 0,-0.198437 -0.0703,-0.338997 -0.0703,-0.140559 -0.1881,-0.208772 -0.11782,-0.07028 -0.26252,-0.07028 -0.17776,0 -0.25424,0.04341 -0.0765,0.04341 -0.22118,0.152962 -0.14263,0.107487 -0.23564,0.107487 -0.10129,0 -0.17984,-0.07235 -0.0786,-0.07441 -0.0786,-0.167431 0,-0.01034 0.0227,-0.14056 l 0.17363,-0.99012 q 0.0289,-0.177767 0.10749,-0.258382 0.0786,-0.08062 0.25632,-0.08062 h 1.0914 q 0.32246,0 0.32246,0.24598 0,0.107487 -0.0786,0.173632 -0.0785,0.06615 -0.23151,0.06615 z"
           id="path21338"
           style="fill:#008080;stroke:none" />
        <path
           d="m 162.91401,56.50124 h -0.98185 l -0.11782,0.669726 q 0.29352,-0.157096 0.54157,-0.157096 0.19843,0 0.37,0.07441 0.17363,0.07441 0.30386,0.206705 0.13022,0.130225 0.20463,0.310059 0.0744,0.179834 0.0744,0.386539 0,0.299723 -0.13436,0.545703 -0.13436,0.245979 -0.38861,0.390673 -0.25218,0.144694 -0.58291,0.144694 -0.37,0 -0.60151,-0.136425 -0.22944,-0.136426 -0.32659,-0.312126 -0.0951,-0.177767 -0.0951,-0.310058 0,-0.08062 0.0661,-0.152962 0.0682,-0.07235 0.1695,-0.07235 0.17363,0 0.25838,0.200504 0.0827,0.183968 0.22324,0.287321 0.14056,0.101286 0.31419,0.101286 0.15917,0 0.27905,-0.08268 0.11989,-0.08268 0.18397,-0.227376 0.0661,-0.144694 0.0661,-0.328662 0,-0.198437 -0.0703,-0.338997 -0.0703,-0.140559 -0.1881,-0.208772 -0.11783,-0.07028 -0.26252,-0.07028 -0.17777,0 -0.25425,0.04341 -0.0765,0.04341 -0.22117,0.152962 -0.14263,0.107487 -0.23565,0.107487 -0.10128,0 -0.17983,-0.07235 -0.0785,-0.07441 -0.0785,-0.167431 0,-0.01034 0.0227,-0.14056 l 0.17363,-0.99012 q 0.0289,-0.177767 0.10749,-0.258382 0.0786,-0.08062 0.25631,-0.08062 h 1.09141 q 0.32246,0 0.32246,0.24598 0,0.107487 -0.0786,0.173632 -0.0786,0.06615 -0.23151,0.06615 z"
           id="path21340"
           style="fill:#008080;stroke:none" />
      </g>
    </g>
    <g
       id="g16582"
       transform="translate(0,9.5250005)">
      <circle
         style="fill:none;stroke:#911eb4;stroke-width:0.499999;stroke-miterlimit:3"
         id="path7343"
         cx="65.947021"
         cy="81.519646"
         r="2.425" />
      <circle
         style="fill:none;stroke:#911eb4;stroke-width:0.499999;stroke-miterlimit:3"
         id="circle7629"
         cx="155.54703"
         cy="81.519638"
         r="2.425" />
      <circle
         style="fill:none;stroke:#911eb4;stroke-width:0.499999;stroke-miterlimit:3"
         id="circle7631"
         cx="133.14702"
         cy="81.519638"
         r="2.425" />
      <circle
         style="fill:none;stroke:#911eb4;stroke-width:0.499999;stroke-miterlimit:3"
         id="circle7633"
         cx="110.74702"
         cy="81.519638"
         r="2.425" />
      <circle
         style="fill:none;stroke:#911eb4;stroke-width:0.499999;stroke-miterlimit:3"
         id="circle7635"
         cx="88.347023"
         cy="81.519638"
         r="2.425" />
    </g>
    <circle
       style="fill:none;stroke:#911eb4;stroke-width:0.1;stroke-miterlimit:3;stroke-dasharray:none"
       id="circle17280"
       cx="153.84175"
       cy="127.19733"
       r="1" />
    <g
       id="g17755"
       transform="translate(0,10.054167)">
      <g
         id="g17732">
        <circle
           style="fill:none;stroke:#911eb4;stroke-width:0.1;stroke-miterlimit:3;stroke-dasharray:none"
           id="path17176"
           cx="67.646194"
           cy="117.14318"
           r="1" />
        <circle
           style="fill:none;stroke:#911eb4;stroke-width:0.1;stroke-miterlimit:3;stroke-dasharray:none"
           id="circle17284"
           cx="153.84175"
           cy="117.14318"
           r="1" />
        <circle
           style="fill:none;stroke:#911eb4;stroke-width:0.1;stroke-miterlimit:3;stroke-dasharray:none"
           id="circle17373"
           cx="67.646194"
           cy="254.14404"
           r="1" />
        <circle
           style="fill:none;stroke:#911eb4;stroke-width:0.1;stroke-miterlimit:3;stroke-dasharray:none"
           id="circle17375"
           cx="153.84175"
           cy="254.14404"
           r="1" />
      </g>
      <rect
         style="fill:none;stroke:#911eb4;stroke-width:0.499999;stroke-miterlimit:3"
         id="rect16650"
         width="76.199997"
         height="127"
         x="72.647026"
         y="122.14217"
         rx="2.9972"
         ry="3.0000045" />
    </g>
  </g>
  <g
     inkscape:groupmode="layer"
     id="layer2"
     inkscape:label="Dimensions"
     style="display:none">
    <path
       style="fill:none;stroke:#000000;stroke-width:0.264583px;stroke-linecap:butt;stroke-linejoin:miter;stroke-opacity:1;marker-start:url(#Arrow1Lstart);marker-end:url(#marker20840)"
       d="M 39.6875,43.419643 V 272.71964"
       id="path19935" />
    <path
       style="fill:none;stroke:#000000;stroke-width:0.264583px;stroke-linecap:butt;stroke-linejoin:miter;stroke-opacity:1;marker-start:url(#Arrow1Lstart);marker-end:url(#marker20840)"
       d="M 24.190476,37.419642 V 278.71962"
       id="path19937" />
    <path
       style="fill:none;stroke:#000000;stroke-width:0.264583px;stroke-linecap:butt;stroke-linejoin:miter;stroke-opacity:1;marker-start:url(#Arrow1Lstart);marker-end:url(#marker20840)"
       d="M 53.247025,29.482142 H 168.24702"
       id="path19939" />
    <path
       style="fill:none;stroke:#000000;stroke-width:0.264583px;stroke-linecap:butt;stroke-linejoin:miter;stroke-opacity:1;marker-start:url(#Arrow1Lstart);marker-end:url(#marker20840)"
       d="M 47.247024,16.441964 H 174.24702"
       id="path19941" />
    <path
       style="fill:none;stroke:#000000;stroke-width:0.264583px;stroke-linecap:butt;stroke-linejoin:miter;stroke-opacity:1;marker-start:url(#Arrow1Lstart);marker-end:url(#marker20840)"
       d="M 65.947025,68.81964 H 47.247024"
       id="path19943" />
    <path
       style="fill:none;stroke:#000000;stroke-width:0.264583px;stroke-linecap:butt;stroke-linejoin:miter;stroke-opacity:1;marker-start:url(#Arrow1Lstart);marker-end:url(#marker20840)"
       d="m 88.347022,68.81964 10e-7,22.224999"
       id="path20058"
       sodipodi:nodetypes="cc" />
    <path
       style="fill:none;stroke:#000000;stroke-width:0.264583px;stroke-linecap:butt;stroke-linejoin:miter;stroke-opacity:1;marker-start:url(#Arrow1Lstart);marker-end:url(#marker20840)"
       d="M 65.947025,68.81964 H 88.34702"
       id="path20173" />
    <path
       style="fill:none;stroke:#000000;stroke-width:0.264583px;stroke-linecap:butt;stroke-linejoin:miter;stroke-opacity:1;marker-start:url(#Arrow1Lstart);marker-end:url(#marker20840)"
       d="M 65.947025,68.81964 V 37.419642"
       id="path20288" />
    <path
       style="fill:none;stroke:#000000;stroke-width:0.264583px;stroke-linecap:butt;stroke-linejoin:miter;stroke-opacity:1;marker-start:url(#Arrow1Lstart);marker-end:url(#marker20840)"
       d="M 62.646196,129.18198 H 47.247023"
       id="path20290" />
    <path
       style="fill:none;stroke:#000000;stroke-width:0.264583px;stroke-linecap:butt;stroke-linejoin:miter;stroke-opacity:1;marker-start:url(#Arrow1Lstart);marker-end:url(#marker20840)"
       d="M 72.647027,141.45759 H 47.247025"
       id="path20292" />
    <path
       style="fill:none;stroke:#000000;stroke-width:0.264583px;stroke-linecap:butt;stroke-linejoin:miter;stroke-opacity:1;marker-start:url(#Arrow1Lstart);marker-end:url(#marker20840)"
       d="m 110.74702,259.19634 v 19.52328"
       id="path20294"
       sodipodi:nodetypes="cc" />
    <path
       style="fill:none;stroke:#000000;stroke-width:0.264583px;stroke-linecap:butt;stroke-linejoin:miter;stroke-opacity:1;marker-start:url(#Arrow1Lstart);marker-end:url(#marker20840)"
       d="m 85.637873,269.19818 v 9.52147"
       id="path20296"
       sodipodi:nodetypes="cc" />
    <text
       x="0"
       y="0"
       id="text21027"><textPath
         style="font-style:normal;font-weight:normal;font-size:3.175px;text-align:center;text-anchor:start;fill:#000000;fill-opacity:1;stroke:none"
         xlink:href="#path19941"
         startOffset="50%"
         dy="-1.5875"
         id="textPath21025">127.0 mm</textPath></text>
    <text
       x="0"
       y="0"
       id="text21031"><textPath
         style="font-style:normal;font-weight:normal;font-size:3.175px;text-align:center;text-anchor:start;fill:#000000;fill-opacity:1;stroke:none"
         xlink:href="#path19939"
         startOffset="50%"
         dy="-1.5875"
         id="textPath21029">115.0 mm</textPath></text>
    <text
       x="0"
       y="0"
       id="text21035"><textPath
         style="font-style:normal;font-weight:normal;font-size:3.175px;text-align:center;text-anchor:start;fill:#000000;fill-opacity:1;stroke:none"
         xlink:href="#path20288"
         startOffset="50%"
         dy="-1.5875"
         id="textPath21033">31.4 mm</textPath></text>
    <text
       x="0"
       y="0"
       id="text21039"
       transform="rotate(180,54.099242,71.561336)"><textPath
         style="font-style:normal;font-weight:normal;font-size:3.175px;text-align:center;text-anchor:start;fill:#000000;fill-opacity:1;stroke:none"
         xlink:href="#path19943"
         startOffset="50%"
         dy="-1.5875"
         id="textPath21037">18.7 mm</textPath></text>
    <text
       x="0"
       y="0"
       id="text21043"
       transform="translate(-6.3500003)"><textPath
         style="font-style:normal;font-weight:normal;font-size:3.175px;text-align:center;text-anchor:start;fill:#000000;fill-opacity:1;stroke:none"
         xlink:href="#path20173"
         startOffset="50%"
         dy="-1.5875"
         id="textPath21041">22.4 mm</textPath></text>
    <text
       x="0"
       y="0"
       id="text21051"><textPath
         style="font-style:normal;font-weight:normal;font-size:3.175px;text-align:center;text-anchor:start;fill:#000000;fill-opacity:1;stroke:none"
         xlink:href="#path19935"
         startOffset="50%"
         dy="-1.5875"
         id="textPath21049">229.3 mm</textPath></text>
    <text
       x="0"
       y="0"
       id="text21055"><textPath
         style="font-style:normal;font-weight:normal;font-size:3.175px;text-align:center;text-anchor:start;fill:#000000;fill-opacity:1;stroke:none"
         xlink:href="#path19937"
         startOffset="50%"
         dy="-1.5875"
         id="textPath21053">241.3 mm</textPath></text>
    <text
       x="0"
       y="0"
       id="text21059"
       transform="rotate(180,53.366564,129.39943)"><textPath
         style="font-style:normal;font-weight:normal;font-size:3.175px;text-align:center;text-anchor:start;fill:#000000;fill-opacity:1;stroke:none"
         xlink:href="#path20290"
         startOffset="50%"
         dy="-1.5875"
         id="textPath21057">15.4 mm</textPath></text>
    <text
       x="0"
       y="0"
       id="text21063"
       transform="rotate(180,57.384496,141.81334)"><textPath
         style="font-style:normal;font-weight:normal;font-size:3.175px;text-align:center;text-anchor:start;fill:#000000;fill-opacity:1;stroke:none"
         xlink:href="#path20292"
         startOffset="50%"
         dy="-1.5875"
         id="textPath21061">25.4 mm</textPath></text>
    <path
       style="fill:none;stroke:#000000;stroke-width:0.264583px;stroke-linecap:butt;stroke-linejoin:miter;stroke-opacity:1;marker-start:url(#Arrow1Lstart);marker-end:url(#marker20840)"
       d="M 72.647026,234.08063 H 148.84702"
       id="path25087" />
    <path
       style="fill:none;stroke:#000000;stroke-width:0.264583px;stroke-linecap:butt;stroke-linejoin:miter;stroke-opacity:1;marker-start:url(#Arrow1Lstart);marker-end:url(#marker20840)"
       d="m 134.89361,132.19634 v 127"
       id="path25089" />
    <text
       x="0"
       y="0"
       id="text25450"><textPath
         style="font-style:normal;font-weight:normal;font-size:3.175px;text-align:center;text-anchor:start;fill:#000000;fill-opacity:1;stroke:none"
         xlink:href="#path25089"
         startOffset="50%"
         dy="-1.5875"
         id="textPath25448">127.0 mm</textPath></text>
    <text
       x="0"
       y="0"
       id="text25454"><textPath
         style="font-style:normal;font-weight:normal;font-size:3.175px;text-align:center;text-anchor:start;fill:#000000;fill-opacity:1;stroke:none"
         xlink:href="#path25087"
         startOffset="50%"
         dy="-1.5875"
         id="textPath25452">76.2 mm</textPath></text>
    <path
       style="fill:none;stroke:#000000;stroke-width:0.264583px;stroke-linecap:butt;stroke-linejoin:miter;stroke-opacity:1;marker-start:url(#Arrow1Lstart);marker-end:url(#marker20840)"
       d="m 67.646195,264.19821 v 14.52144"
       id="path31051" />
    <path
       style="fill:none;stroke:#000000;stroke-width:0.264583px;stroke-linecap:butt;stroke-linejoin:miter;stroke-opacity:1;marker-start:url(#Arrow1Lstart);marker-end:url(#marker20840)"
       d="M 67.646195,264.19821 H 47.247024"
       id="path31166" />
    <text
       x="0"
       y="0"
       id="text31602"
       transform="rotate(180,53.956583,264.53447)"><textPath
         style="font-style:normal;font-weight:normal;font-size:3.175px;text-align:center;text-anchor:start;fill:#000000;fill-opacity:1;stroke:none"
         xlink:href="#path31166"
         startOffset="50%"
         dy="-1.5875"
         id="textPath31600">20.4 mm</textPath></text>
    <text
       x="0"
       y="0"
       id="text31606"
       transform="translate(0,-2.1166667)"><textPath
         style="font-style:normal;font-weight:normal;font-size:3.175px;text-align:center;text-anchor:start;fill:#000000;fill-opacity:1;stroke:none"
         xlink:href="#path31051"
         startOffset="50%"
         dy="-1.5875"
         id="textPath31604">14.52 mm</textPath></text>
    <text
       x="0"
       y="0"
       id="text31610"
       transform="translate(0,-2.1166667)"><textPath
         style="font-style:normal;font-weight:normal;font-size:3.175px;text-align:center;text-anchor:start;fill:#000000;fill-opacity:1;stroke:none"
         xlink:href="#path20296"
         startOffset="50%"
         dy="-1.5875"
         id="textPath31608">9.52 mm</textPath></text>
    <text
       x="0"
       y="0"
       id="text31614"><textPath
         style="font-style:normal;font-weight:normal;font-size:3.175px;text-align:center;text-anchor:start;fill:#000000;fill-opacity:1;stroke:none"
         xlink:href="#path20294"
         startOffset="50%"
         dy="-1.5875"
         id="textPath31612">19.52 mm</textPath></text>
    <text
       x="0"
       y="0"
       id="text32463"
       transform="translate(0,-4.7625002)"><textPath
         style="font-style:normal;font-weight:normal;font-size:3.175px;text-align:center;text-anchor:start;fill:#000000;fill-opacity:1;stroke:none"
         xlink:href="#path20058"
         startOffset="50%"
         dy="-1.5875"
         id="textPath32461">22.22 mm</textPath></text>
  </g>
  <g
     inkscape:groupmode="layer"
     id="layer4"
     inkscape:label="Inset"
     style="display:none">
    <g
       aria-label="410.4375  170.0125  155.7525  156.3400  755.7475"
       id="text28760"
       style="font-size:8.99016px;line-height:1.25;font-family:'Arial Rounded MT Bold';-inkscape-font-specification:'Arial Rounded MT Bold, ';letter-spacing:0px;word-spacing:0px;fill:#0082c8;stroke-width:0.374589"
       transform="translate(0,10.054167)">
      <path
         d="m 93.905842,143.33838 v -0.81649 h -2.203643 q -0.417024,0 -0.627731,-0.18876 -0.206317,-0.18876 -0.206317,-0.5136 0,-0.0834 0.03073,-0.16681 0.03073,-0.0878 0.09218,-0.17998 0.06146,-0.0966 0.127302,-0.18436 0.06585,-0.0878 0.16242,-0.2151 l 2.326555,-3.11232 q 0.228266,-0.30728 0.373127,-0.44336 0.149251,-0.14047 0.355568,-0.14047 0.667238,0 0.667238,0.76381 v 3.39765 h 0.188758 q 0.338009,0 0.539937,0.0922 0.206317,0.0922 0.206317,0.40385 0,0.2546 -0.16681,0.37313 -0.166809,0.11413 -0.500429,0.11413 h -0.267773 v 0.81649 q 0,0.33801 -0.149251,0.50482 -0.14925,0.16242 -0.399465,0.16242 -0.245824,0 -0.399465,-0.16681 -0.14925,-0.1712 -0.14925,-0.50043 z m -1.887583,-1.79979 h 1.887583 v -2.55043 z"
         id="path29642" />
      <path
         d="m 98.637967,143.29448 v -3.99465 q -1.114991,0.856 -1.501287,0.856 -0.184368,0 -0.329229,-0.14486 -0.140472,-0.14925 -0.140472,-0.3424 0,-0.22388 0.140472,-0.32923 0.140471,-0.10536 0.496039,-0.27217 0.531157,-0.25021 0.847217,-0.52676 0.32045,-0.27656 0.566275,-0.61895 0.245824,-0.3424 0.32045,-0.42142 0.07462,-0.079 0.280942,-0.079 0.232656,0 0.373127,0.17998 0.140471,0.17997 0.140471,0.49604 v 5.02623 q 0,0.88234 -0.601392,0.88234 -0.267774,0 -0.430193,-0.17998 -0.16242,-0.17998 -0.16242,-0.53116 z"
         id="path29644" />
      <path
         d="m 106.3595,140.73966 q 0,0.71992 -0.0878,1.2379 -0.0878,0.51799 -0.32484,0.93941 -0.2985,0.51798 -0.77259,0.79893 -0.47409,0.28094 -1.05354,0.28094 -0.66723,0 -1.19839,-0.37752 -0.52677,-0.37752 -0.79454,-1.04475 -0.13608,-0.36435 -0.20193,-0.80332 -0.0615,-0.44337 -0.0615,-0.95696 0,-0.66285 0.0702,-1.19401 0.0702,-0.53116 0.21949,-0.91306 0.25899,-0.63212 0.75064,-0.96135 0.49604,-0.33362 1.18084,-0.33362 0.45214,0 0.82088,0.14925 0.36873,0.14486 0.64529,0.43019 0.28094,0.28094 0.47409,0.69797 0.33362,0.7243 0.33362,2.05 z m -1.20279,-0.0878 q 0,-0.80332 -0.0966,-1.31253 -0.0966,-0.5136 -0.32484,-0.77259 -0.22827,-0.26339 -0.63212,-0.26339 -0.57945,0 -0.80771,0.58384 -0.22388,0.58383 -0.22388,1.79978 0,0.82527 0.0966,1.35204 0.0966,0.52677 0.32484,0.79893 0.22827,0.26777 0.61896,0.26777 0.40385,0 0.63212,-0.28094 0.22826,-0.28094 0.32045,-0.80332 0.0922,-0.52238 0.0922,-1.36959 z"
         id="path29646" />
      <path
         d="m 108.19879,144.00562 q -0.27216,0 -0.4697,-0.17559 -0.19754,-0.17559 -0.19754,-0.49165 0,-0.26777 0.18876,-0.46092 0.18876,-0.19315 0.46531,-0.19315 0.27655,0 0.4697,0.19315 0.19754,0.18876 0.19754,0.46092 0,0.31167 -0.19754,0.49165 -0.19315,0.17559 -0.45653,0.17559 z"
         id="path29648" />
      <path
         d="m 112.74655,143.33838 v -0.81649 h -2.20365 q -0.41702,0 -0.62773,-0.18876 -0.20631,-0.18876 -0.20631,-0.5136 0,-0.0834 0.0307,-0.16681 0.0307,-0.0878 0.0922,-0.17998 0.0615,-0.0966 0.1273,-0.18436 0.0658,-0.0878 0.16242,-0.2151 l 2.32656,-3.11232 q 0.22826,-0.30728 0.37312,-0.44336 0.14925,-0.14047 0.35557,-0.14047 0.66724,0 0.66724,0.76381 v 3.39765 h 0.18876 q 0.33801,0 0.53993,0.0922 0.20632,0.0922 0.20632,0.40385 0,0.2546 -0.16681,0.37313 -0.16681,0.11413 -0.50043,0.11413 h -0.26777 v 0.81649 q 0,0.33801 -0.14925,0.50482 -0.14925,0.16242 -0.39947,0.16242 -0.24582,0 -0.39946,-0.16681 -0.14925,-0.1712 -0.14925,-0.50043 z m -1.88759,-1.79979 h 1.88759 v -2.55043 z"
         id="path29650" />
      <path
         d="m 117.40405,140.01097 q 0.40385,0 0.69357,-0.23705 0.29412,-0.23704 0.29412,-0.68041 0,-0.33801 -0.23266,-0.57944 -0.23266,-0.24583 -0.62773,-0.24583 -0.26777,0 -0.44336,0.0746 -0.1712,0.0746 -0.27217,0.19754 -0.10096,0.12291 -0.19314,0.31606 -0.0878,0.19315 -0.16242,0.36435 -0.0439,0.0922 -0.15803,0.14486 -0.11414,0.0527 -0.26339,0.0527 -0.17559,0 -0.32484,-0.14047 -0.14486,-0.14486 -0.14486,-0.3819 0,-0.22827 0.13608,-0.47848 0.14047,-0.25461 0.40386,-0.48287 0.26777,-0.22827 0.66285,-0.36435 0.39507,-0.14047 0.88233,-0.14047 0.4258,0 0.77698,0.11852 0.35118,0.11413 0.61017,0.33362 0.259,0.21948 0.39069,0.50921 0.13169,0.28972 0.13169,0.62334 0,0.43897 -0.19315,0.75503 -0.18875,0.31167 -0.54432,0.61017 0.3424,0.18437 0.57505,0.42142 0.23705,0.23704 0.35557,0.52676 0.11852,0.28534 0.11852,0.61896 0,0.39946 -0.16242,0.77259 -0.15803,0.37312 -0.4697,0.66724 -0.31167,0.28972 -0.74186,0.45653 -0.42581,0.16242 -0.94379,0.16242 -0.52677,0 -0.94379,-0.18876 -0.41703,-0.18876 -0.68919,-0.4697 -0.26777,-0.28533 -0.40825,-0.58823 -0.13608,-0.30289 -0.13608,-0.50042 0,-0.25461 0.16242,-0.40825 0.16681,-0.15803 0.41264,-0.15803 0.12291,0 0.23704,0.0746 0.11414,0.0702 0.14925,0.1712 0.22827,0.61017 0.48726,0.90867 0.26339,0.29411 0.73748,0.29411 0.27216,0 0.52237,-0.13169 0.25461,-0.13608 0.41703,-0.39947 0.16681,-0.26338 0.16681,-0.61017 0,-0.5136 -0.28094,-0.80332 -0.28095,-0.29411 -0.78138,-0.29411 -0.0878,0 -0.27216,0.0176 -0.18437,0.0176 -0.23704,0.0176 -0.24144,0 -0.37313,-0.11852 -0.13169,-0.12292 -0.13169,-0.33801 0,-0.21071 0.15803,-0.33801 0.15803,-0.13169 0.4697,-0.13169 z"
         id="path29652" />
      <path
         d="m 121.68403,137.52199 h 2.92356 q 0.42141,0 0.61017,0.13169 0.18876,0.13169 0.18876,0.43459 0,0.18436 -0.22388,0.48726 -0.21948,0.30289 -0.50482,0.67162 -0.28094,0.36435 -0.58383,0.90868 -0.2985,0.54432 -0.54872,1.33008 -0.10535,0.34679 -0.14925,0.57506 -0.0439,0.22826 -0.0966,0.59261 -0.0527,0.36435 -0.0922,0.5575 -0.0922,0.44775 -0.26338,0.62334 -0.16681,0.1712 -0.44775,0.1712 -0.26777,0 -0.43019,-0.18437 -0.16242,-0.18876 -0.16242,-0.55311 0,-0.28094 0.11852,-0.76381 0.11852,-0.48287 0.38629,-1.1545 0.26778,-0.67602 0.66724,-1.38276 0.40386,-0.71114 0.95696,-1.41349 h -2.3485 q -0.36874,0 -0.55311,-0.13169 -0.17997,-0.13609 -0.17997,-0.42142 0,-0.30289 0.19314,-0.39068 0.19315,-0.0878 0.53994,-0.0878 z"
         id="path29654" />
      <path
         d="m 129.78746,138.5448 h -2.08512 l -0.25021,1.42227 q 0.62334,-0.33362 1.15011,-0.33362 0.42141,0 0.78576,0.15803 0.36874,0.15803 0.64529,0.43897 0.27655,0.27656 0.43458,0.65846 0.15803,0.38191 0.15803,0.82088 0,0.63651 -0.28533,1.15889 -0.28533,0.52238 -0.82527,0.82966 -0.53555,0.30728 -1.2379,0.30728 -0.78576,0 -1.27741,-0.28972 -0.48726,-0.28973 -0.69358,-0.66285 -0.20193,-0.37752 -0.20193,-0.65846 0,-0.1712 0.14047,-0.32484 0.14487,-0.15364 0.35996,-0.15364 0.36874,0 0.54872,0.4258 0.17559,0.39069 0.47409,0.61017 0.2985,0.2151 0.66724,0.2151 0.33801,0 0.59261,-0.17559 0.2546,-0.17559 0.39069,-0.48287 0.14047,-0.30728 0.14047,-0.69797 0,-0.42141 -0.14925,-0.71991 -0.14925,-0.2985 -0.39947,-0.44336 -0.25021,-0.14925 -0.55749,-0.14925 -0.37752,0 -0.53994,0.0922 -0.16242,0.0922 -0.4697,0.32484 -0.30289,0.22827 -0.50043,0.22827 -0.2151,0 -0.38191,-0.15364 -0.16681,-0.15804 -0.16681,-0.35557 0,-0.022 0.0483,-0.2985 l 0.36874,-2.10268 q 0.0614,-0.37752 0.22826,-0.54872 0.16681,-0.1712 0.54433,-0.1712 h 2.31778 q 0.68479,0 0.68479,0.52238 0,0.22826 -0.16681,0.36874 -0.16681,0.14047 -0.49165,0.14047 z"
         id="path29656" />
      <path
         d="m 93.29567,165.76988 v -3.99465 q -1.114991,0.856 -1.501287,0.856 -0.184368,0 -0.329229,-0.14486 -0.140472,-0.14925 -0.140472,-0.3424 0,-0.22388 0.140472,-0.32923 0.140471,-0.10536 0.496039,-0.27217 0.531157,-0.25021 0.847217,-0.52676 0.32045,-0.27656 0.566275,-0.61895 0.245824,-0.3424 0.32045,-0.42142 0.07463,-0.079 0.280942,-0.079 0.232656,0 0.373127,0.17998 0.140471,0.17997 0.140471,0.49604 v 5.02623 q 0,0.88234 -0.601392,0.88234 -0.267774,0 -0.430194,-0.17998 -0.162419,-0.17998 -0.162419,-0.53116 z"
         id="path29658" />
      <path
         d="m 97.501027,159.99739 h 2.923563 q 0.42141,0 0.61017,0.13169 0.18876,0.13169 0.18876,0.43459 0,0.18436 -0.22388,0.48726 -0.21949,0.30289 -0.50482,0.67162 -0.28094,0.36435 -0.583833,0.90868 -0.298501,0.54432 -0.548715,1.33008 -0.105354,0.34679 -0.149251,0.57506 -0.0439,0.22826 -0.09657,0.59261 -0.05268,0.36435 -0.09218,0.5575 -0.09219,0.44775 -0.263384,0.62334 -0.16681,0.1712 -0.447752,0.1712 -0.267773,0 -0.430193,-0.18437 -0.16242,-0.18876 -0.16242,-0.55311 0,-0.28094 0.118522,-0.76381 0.118523,-0.48287 0.386296,-1.1545 0.267774,-0.67602 0.667239,-1.38276 0.403855,-0.71114 0.95696,-1.41349 h -2.348504 q -0.368737,0 -0.553105,-0.1317 -0.179979,-0.13608 -0.179979,-0.42141 0,-0.30289 0.193148,-0.39068 0.193148,-0.0878 0.539936,-0.0878 z"
         id="path29660" />
      <path
         d="m 106.3595,163.21506 q 0,0.71992 -0.0878,1.2379 -0.0878,0.51799 -0.32484,0.9394 -0.2985,0.51799 -0.77259,0.79894 -0.47409,0.28094 -1.05354,0.28094 -0.66723,0 -1.19839,-0.37752 -0.52677,-0.37752 -0.79454,-1.04475 -0.13608,-0.36435 -0.20193,-0.80332 -0.0615,-0.44337 -0.0615,-0.95696 0,-0.66285 0.0702,-1.19401 0.0702,-0.53116 0.21949,-0.91306 0.25899,-0.63212 0.75064,-0.96135 0.49604,-0.33362 1.18084,-0.33362 0.45214,0 0.82088,0.14925 0.36873,0.14486 0.64529,0.43019 0.28094,0.28094 0.47409,0.69797 0.33362,0.7243 0.33362,2.05 z m -1.20279,-0.0878 q 0,-0.80332 -0.0966,-1.31253 -0.0966,-0.5136 -0.32484,-0.77259 -0.22827,-0.26339 -0.63212,-0.26339 -0.57945,0 -0.80771,0.58384 -0.22388,0.58383 -0.22388,1.79978 0,0.82527 0.0966,1.35204 0.0966,0.52677 0.32484,0.79893 0.22827,0.26777 0.61896,0.26777 0.40385,0 0.63212,-0.28094 0.22826,-0.28094 0.32045,-0.80332 0.0922,-0.52238 0.0922,-1.36959 z"
         id="path29662" />
      <path
         d="m 108.19879,166.48102 q -0.27216,0 -0.4697,-0.17559 -0.19754,-0.17559 -0.19754,-0.49165 0,-0.26777 0.18876,-0.46092 0.18876,-0.19315 0.46531,-0.19315 0.27655,0 0.4697,0.19315 0.19754,0.18876 0.19754,0.46092 0,0.31167 -0.19754,0.49165 -0.19315,0.17559 -0.45653,0.17559 z"
         id="path29664" />
      <path
         d="m 114.51561,163.21506 q 0,0.71992 -0.0878,1.2379 -0.0878,0.51799 -0.32484,0.9394 -0.2985,0.51799 -0.77259,0.79894 -0.47409,0.28094 -1.05353,0.28094 -0.66724,0 -1.1984,-0.37752 -0.52677,-0.37752 -0.79454,-1.04475 -0.13608,-0.36435 -0.20193,-0.80332 -0.0615,-0.44337 -0.0615,-0.95696 0,-0.66285 0.0702,-1.19401 0.0702,-0.53116 0.21949,-0.91306 0.25899,-0.63212 0.75064,-0.96135 0.49604,-0.33362 1.18084,-0.33362 0.45214,0 0.82088,0.14925 0.36873,0.14486 0.64529,0.43019 0.28094,0.28094 0.47409,0.69797 0.33362,0.7243 0.33362,2.05 z m -1.20279,-0.0878 q 0,-0.80332 -0.0966,-1.31253 -0.0966,-0.5136 -0.32484,-0.77259 -0.22827,-0.26339 -0.63212,-0.26339 -0.57945,0 -0.80771,0.58384 -0.22388,0.58383 -0.22388,1.79978 0,0.82527 0.0966,1.35204 0.0966,0.52677 0.32484,0.79893 0.22826,0.26777 0.61895,0.26777 0.40385,0 0.63212,-0.28094 0.22826,-0.28094 0.32045,-0.80332 0.0922,-0.52238 0.0922,-1.36959 z"
         id="path29666" />
      <path
         d="m 117.47867,165.76988 v -3.99465 q -1.11499,0.856 -1.50128,0.856 -0.18437,0 -0.32923,-0.14486 -0.14048,-0.14925 -0.14048,-0.3424 0,-0.22388 0.14048,-0.32923 0.14047,-0.10536 0.49604,-0.27217 0.53115,-0.25021 0.84721,-0.52676 0.32045,-0.27656 0.56628,-0.61895 0.24582,-0.3424 0.32045,-0.42142 0.0746,-0.079 0.28094,-0.079 0.23266,0 0.37313,0.17998 0.14047,0.17997 0.14047,0.49604 v 5.02623 q 0,0.88234 -0.60139,0.88234 -0.26778,0 -0.4302,-0.17998 -0.16242,-0.17998 -0.16242,-0.53116 z"
         id="path29668" />
      <path
         d="m 122.28981,165.3353 h 2.29144 q 0.3424,0 0.52238,0.14047 0.17998,0.14047 0.17998,0.38191 0,0.21509 -0.14487,0.36434 -0.14047,0.14925 -0.43019,0.14925 h -3.23084 q -0.32923,0 -0.5136,-0.17997 -0.18436,-0.18437 -0.18436,-0.4302 0,-0.15803 0.11852,-0.41702 0.11852,-0.26339 0.25899,-0.41264 0.58384,-0.60578 1.05354,-1.03597 0.4697,-0.43458 0.67162,-0.57067 0.35996,-0.2546 0.59701,-0.5092 0.24143,-0.259 0.36434,-0.52677 0.12731,-0.27216 0.12731,-0.53116 0,-0.28094 -0.13608,-0.50043 -0.1317,-0.22387 -0.36435,-0.34679 -0.22827,-0.12291 -0.50043,-0.12291 -0.57505,0 -0.90428,0.50482 -0.0439,0.0659 -0.14926,0.35996 -0.10096,0.29411 -0.23265,0.45214 -0.1273,0.15803 -0.37752,0.15803 -0.21948,0 -0.36434,-0.14486 -0.14487,-0.14486 -0.14487,-0.39508 0,-0.30289 0.13609,-0.63212 0.13608,-0.32923 0.40385,-0.597 0.27216,-0.26777 0.6848,-0.43019 0.41702,-0.16681 0.97452,-0.16681 0.67163,0 1.14572,0.2107 0.30728,0.14048 0.53993,0.3863 0.23266,0.24582 0.35996,0.57066 0.13169,0.32045 0.13169,0.66724 0,0.54433 -0.27216,0.99208 -0.26777,0.44336 -0.54872,0.69797 -0.28094,0.25021 -0.94379,0.79015 -0.65846,0.53993 -0.90428,0.83844 -0.10536,0.11852 -0.2151,0.28533 z"
         id="path29670" />
      <path
         d="m 129.78746,161.0202 h -2.08512 l -0.25021,1.42227 q 0.62334,-0.33362 1.15011,-0.33362 0.42141,0 0.78576,0.15803 0.36874,0.15803 0.64529,0.43897 0.27655,0.27656 0.43458,0.65846 0.15803,0.38191 0.15803,0.82088 0,0.63651 -0.28533,1.15889 -0.28533,0.52238 -0.82527,0.82966 -0.53555,0.30728 -1.2379,0.30728 -0.78576,0 -1.27741,-0.28972 -0.48726,-0.28973 -0.69358,-0.66285 -0.20193,-0.37752 -0.20193,-0.65846 0,-0.1712 0.14047,-0.32484 0.14487,-0.15364 0.35996,-0.15364 0.36874,0 0.54872,0.4258 0.17559,0.39069 0.47409,0.61017 0.2985,0.2151 0.66724,0.2151 0.33801,0 0.59261,-0.17559 0.2546,-0.17559 0.39069,-0.48287 0.14047,-0.30728 0.14047,-0.69797 0,-0.42141 -0.14925,-0.71991 -0.14925,-0.2985 -0.39947,-0.44336 -0.25021,-0.14925 -0.55749,-0.14925 -0.37752,0 -0.53994,0.0922 -0.16242,0.0922 -0.4697,0.32484 -0.30289,0.22827 -0.50043,0.22827 -0.2151,0 -0.38191,-0.15364 -0.16681,-0.15804 -0.16681,-0.35557 0,-0.022 0.0483,-0.2985 l 0.36874,-2.10268 q 0.0614,-0.37752 0.22826,-0.54872 0.16681,-0.1712 0.54433,-0.1712 h 2.31778 q 0.68479,0 0.68479,0.52238 0,0.22826 -0.16681,0.36874 -0.16681,0.14047 -0.49165,0.14047 z"
         id="path29672" />
      <path
         d="m 93.29567,188.24528 v -3.99465 q -1.114991,0.856 -1.501287,0.856 -0.184368,0 -0.329229,-0.14486 -0.140472,-0.14925 -0.140472,-0.3424 0,-0.22388 0.140472,-0.32923 0.140471,-0.10536 0.496039,-0.27217 0.531157,-0.25021 0.847217,-0.52676 0.32045,-0.27656 0.566275,-0.61895 0.245824,-0.3424 0.32045,-0.42142 0.07463,-0.079 0.280942,-0.079 0.232656,0 0.373127,0.17998 0.140471,0.17997 0.140471,0.49604 v 5.02623 q 0,0.88234 -0.601392,0.88234 -0.267774,0 -0.430194,-0.17998 -0.162419,-0.17998 -0.162419,-0.53116 z"
         id="path29674" />
      <path
         d="m 100.26217,183.4956 h -2.085125 l -0.250214,1.42227 q 0.623341,-0.33362 1.150108,-0.33362 0.421414,0 0.785761,0.15803 0.36874,0.15803 0.64529,0.43897 0.27655,0.27656 0.43458,0.65846 0.15803,0.38191 0.15803,0.82088 0,0.63651 -0.28533,1.15889 -0.28533,0.52238 -0.825268,0.82966 -0.535546,0.30728 -1.237902,0.30728 -0.785762,0 -1.277411,-0.28972 -0.48726,-0.28973 -0.693577,-0.66285 -0.201927,-0.37752 -0.201927,-0.65846 0,-0.1712 0.140471,-0.32484 0.144861,-0.15364 0.359958,-0.15364 0.368737,0 0.548716,0.4258 0.175589,0.39069 0.47409,0.61017 0.298501,0.2151 0.667238,0.2151 0.338009,0 0.592614,-0.17559 0.254604,-0.17559 0.390685,-0.48287 0.140471,-0.30728 0.140471,-0.69797 0,-0.42141 -0.14925,-0.71991 -0.149251,-0.2985 -0.399465,-0.44336 -0.250215,-0.14925 -0.557496,-0.14925 -0.377516,0 -0.539936,0.0922 -0.16242,0.0922 -0.469701,0.32484 -0.302891,0.22827 -0.500429,0.22827 -0.215096,0 -0.381906,-0.15365 -0.166809,-0.15803 -0.166809,-0.35556 0,-0.0219 0.04829,-0.2985 l 0.368737,-2.10268 q 0.06146,-0.37752 0.228265,-0.54872 0.16681,-0.1712 0.544326,-0.1712 h 2.317776 q 0.68479,0 0.68479,0.52238 0,0.22826 -0.16681,0.36874 -0.1668,0.14047 -0.49164,0.14047 z"
         id="path29676" />
      <path
         d="m 105.60446,183.4956 h -2.08512 l -0.25021,1.42227 q 0.62334,-0.33362 1.15011,-0.33362 0.42141,0 0.78576,0.15803 0.36873,0.15803 0.64529,0.43897 0.27655,0.27656 0.43458,0.65846 0.15803,0.38191 0.15803,0.82088 0,0.63651 -0.28533,1.15889 -0.28533,0.52238 -0.82527,0.82966 -0.53555,0.30728 -1.2379,0.30728 -0.78576,0 -1.27741,-0.28972 -0.48726,-0.28973 -0.69358,-0.66285 -0.20193,-0.37752 -0.20193,-0.65846 0,-0.1712 0.14047,-0.32484 0.14486,-0.15364 0.35996,-0.15364 0.36874,0 0.54872,0.4258 0.17559,0.39069 0.47409,0.61017 0.2985,0.2151 0.66724,0.2151 0.338,0 0.59261,-0.17559 0.2546,-0.17559 0.39068,-0.48287 0.14048,-0.30728 0.14048,-0.69797 0,-0.42141 -0.14926,-0.71991 -0.14925,-0.2985 -0.39946,-0.44336 -0.25021,-0.14925 -0.5575,-0.14925 -0.37751,0 -0.53993,0.0922 -0.16242,0.0922 -0.4697,0.32484 -0.30289,0.22827 -0.50043,0.22827 -0.2151,0 -0.38191,-0.15365 -0.16681,-0.15803 -0.16681,-0.35556 0,-0.0219 0.0483,-0.2985 l 0.36874,-2.10268 q 0.0615,-0.37752 0.22826,-0.54872 0.16681,-0.1712 0.54433,-0.1712 h 2.31777 q 0.6848,0 0.6848,0.52238 0,0.22826 -0.16681,0.36874 -0.16681,0.14047 -0.49165,0.14047 z"
         id="path29678" />
      <path
         d="m 108.19879,188.95642 q -0.27216,0 -0.4697,-0.17559 -0.19754,-0.17559 -0.19754,-0.49165 0,-0.26777 0.18876,-0.46092 0.18876,-0.19315 0.46531,-0.19315 0.27655,0 0.4697,0.19315 0.19754,0.18876 0.19754,0.46092 0,0.31167 -0.19754,0.49165 -0.19315,0.17559 -0.45653,0.17559 z"
         id="path29680" />
      <path
         d="m 110.99944,182.47279 h 2.92355 q 0.42142,0 0.61018,0.13169 0.18875,0.13169 0.18875,0.43459 0,0.18436 -0.22387,0.48726 -0.21949,0.30289 -0.50482,0.67162 -0.28094,0.36435 -0.58383,0.90868 -0.29851,0.54432 -0.54872,1.33008 -0.10535,0.34679 -0.14925,0.57506 -0.0439,0.22826 -0.0966,0.59261 -0.0527,0.36435 -0.0922,0.5575 -0.0922,0.44775 -0.26338,0.62334 -0.16681,0.1712 -0.44775,0.1712 -0.26778,0 -0.4302,-0.18437 -0.16242,-0.18876 -0.16242,-0.55311 0,-0.28094 0.11853,-0.76381 0.11852,-0.48287 0.38629,-1.1545 0.26777,-0.67602 0.66724,-1.38276 0.40385,-0.71114 0.95696,-1.41349 h -2.3485 q -0.36874,0 -0.55311,-0.1317 -0.17998,-0.13608 -0.17998,-0.42141 0,-0.30289 0.19315,-0.39068 0.19315,-0.0878 0.53994,-0.0878 z"
         id="path29682" />
      <path
         d="m 119.10287,183.4956 h -2.08512 l -0.25021,1.42227 q 0.62334,-0.33362 1.1501,-0.33362 0.42142,0 0.78577,0.15803 0.36873,0.15803 0.64529,0.43897 0.27655,0.27656 0.43458,0.65846 0.15803,0.38191 0.15803,0.82088 0,0.63651 -0.28533,1.15889 -0.28534,0.52238 -0.82527,0.82966 -0.53555,0.30728 -1.23791,0.30728 -0.78576,0 -1.27741,-0.28972 -0.48726,-0.28973 -0.69357,-0.66285 -0.20193,-0.37752 -0.20193,-0.65846 0,-0.1712 0.14047,-0.32484 0.14486,-0.15364 0.35996,-0.15364 0.36874,0 0.54871,0.4258 0.17559,0.39069 0.4741,0.61017 0.2985,0.2151 0.66723,0.2151 0.33801,0 0.59262,-0.17559 0.2546,-0.17559 0.39068,-0.48287 0.14047,-0.30728 0.14047,-0.69797 0,-0.42141 -0.14925,-0.71991 -0.14925,-0.2985 -0.39946,-0.44336 -0.25022,-0.14925 -0.5575,-0.14925 -0.37751,0 -0.53993,0.0922 -0.16242,0.0922 -0.4697,0.32484 -0.3029,0.22827 -0.50043,0.22827 -0.2151,0 -0.38191,-0.15365 -0.16681,-0.15803 -0.16681,-0.35556 0,-0.0219 0.0483,-0.2985 l 0.36873,-2.10268 q 0.0615,-0.37752 0.22827,-0.54872 0.16681,-0.1712 0.54433,-0.1712 h 2.31777 q 0.6848,0 0.6848,0.52238 0,0.22826 -0.16681,0.36874 -0.16681,0.14047 -0.49165,0.14047 z"
         id="path29684" />
      <path
         d="m 122.28981,187.8107 h 2.29144 q 0.3424,0 0.52238,0.14047 0.17998,0.14047 0.17998,0.38191 0,0.21509 -0.14487,0.36434 -0.14047,0.14925 -0.43019,0.14925 h -3.23084 q -0.32923,0 -0.5136,-0.17997 -0.18436,-0.18437 -0.18436,-0.4302 0,-0.15803 0.11852,-0.41702 0.11852,-0.26339 0.25899,-0.41264 0.58384,-0.60578 1.05354,-1.03597 0.4697,-0.43458 0.67162,-0.57067 0.35996,-0.2546 0.59701,-0.5092 0.24143,-0.259 0.36434,-0.52677 0.12731,-0.27216 0.12731,-0.53116 0,-0.28094 -0.13608,-0.50043 -0.1317,-0.22387 -0.36435,-0.34679 -0.22827,-0.12291 -0.50043,-0.12291 -0.57505,0 -0.90428,0.50482 -0.0439,0.0658 -0.14926,0.35996 -0.10096,0.29411 -0.23265,0.45214 -0.1273,0.15803 -0.37752,0.15803 -0.21948,0 -0.36434,-0.14486 -0.14487,-0.14486 -0.14487,-0.39508 0,-0.30289 0.13609,-0.63212 0.13608,-0.32923 0.40385,-0.597 0.27216,-0.26777 0.6848,-0.43019 0.41702,-0.16681 0.97452,-0.16681 0.67163,0 1.14572,0.2107 0.30728,0.14048 0.53993,0.3863 0.23266,0.24582 0.35996,0.57066 0.13169,0.32045 0.13169,0.66724 0,0.54433 -0.27216,0.99208 -0.26777,0.44336 -0.54872,0.69797 -0.28094,0.25021 -0.94379,0.79015 -0.65846,0.53993 -0.90428,0.83844 -0.10536,0.11852 -0.2151,0.28533 z"
         id="path29686" />
      <path
         d="m 129.78746,183.4956 h -2.08512 l -0.25021,1.42227 q 0.62334,-0.33362 1.15011,-0.33362 0.42141,0 0.78576,0.15803 0.36874,0.15803 0.64529,0.43897 0.27655,0.27656 0.43458,0.65846 0.15803,0.38191 0.15803,0.82088 0,0.63651 -0.28533,1.15889 -0.28533,0.52238 -0.82527,0.82966 -0.53555,0.30728 -1.2379,0.30728 -0.78576,0 -1.27741,-0.28972 -0.48726,-0.28973 -0.69358,-0.66285 -0.20193,-0.37752 -0.20193,-0.65846 0,-0.1712 0.14047,-0.32484 0.14487,-0.15364 0.35996,-0.15364 0.36874,0 0.54872,0.4258 0.17559,0.39069 0.47409,0.61017 0.2985,0.2151 0.66724,0.2151 0.33801,0 0.59261,-0.17559 0.2546,-0.17559 0.39069,-0.48287 0.14047,-0.30728 0.14047,-0.69797 0,-0.42141 -0.14925,-0.71991 -0.14925,-0.2985 -0.39947,-0.44336 -0.25021,-0.14925 -0.55749,-0.14925 -0.37752,0 -0.53994,0.0922 -0.16242,0.0922 -0.4697,0.32484 -0.30289,0.22827 -0.50043,0.22827 -0.2151,0 -0.38191,-0.15365 -0.16681,-0.15803 -0.16681,-0.35556 0,-0.0219 0.0483,-0.2985 l 0.36874,-2.10268 q 0.0614,-0.37752 0.22826,-0.54872 0.16681,-0.1712 0.54433,-0.1712 h 2.31778 q 0.68479,0 0.68479,0.52238 0,0.22826 -0.16681,0.36874 -0.16681,0.14047 -0.49165,0.14047 z"
         id="path29688" />
      <path
         d="m 93.29567,210.72068 v -3.99465 q -1.114991,0.856 -1.501287,0.856 -0.184368,0 -0.329229,-0.14486 -0.140472,-0.14925 -0.140472,-0.3424 0,-0.22388 0.140472,-0.32923 0.140471,-0.10536 0.496039,-0.27217 0.531157,-0.25021 0.847217,-0.52676 0.32045,-0.27656 0.566275,-0.61895 0.245824,-0.3424 0.32045,-0.42142 0.07463,-0.079 0.280942,-0.079 0.232656,0 0.373127,0.17998 0.140471,0.17997 0.140471,0.49604 v 5.02623 q 0,0.88234 -0.601392,0.88234 -0.267774,0 -0.430194,-0.17998 -0.162419,-0.17998 -0.162419,-0.53116 z"
         id="path29690" />
      <path
         d="m 100.26217,205.971 h -2.085125 l -0.250214,1.42227 q 0.623341,-0.33362 1.150108,-0.33362 0.421414,0 0.785761,0.15803 0.36874,0.15803 0.64529,0.43897 0.27655,0.27656 0.43458,0.65846 0.15803,0.38191 0.15803,0.82088 0,0.63651 -0.28533,1.15889 -0.28533,0.52238 -0.825268,0.82966 -0.535546,0.30728 -1.237902,0.30728 -0.785762,0 -1.277411,-0.28972 -0.48726,-0.28973 -0.693577,-0.66285 -0.201927,-0.37752 -0.201927,-0.65846 0,-0.1712 0.140471,-0.32484 0.144861,-0.15364 0.359958,-0.15364 0.368737,0 0.548716,0.4258 0.175589,0.39069 0.47409,0.61017 0.298501,0.2151 0.667238,0.2151 0.338009,0 0.592614,-0.17559 0.254604,-0.17559 0.390685,-0.48287 0.140471,-0.30728 0.140471,-0.69797 0,-0.42141 -0.14925,-0.71991 -0.149251,-0.2985 -0.399465,-0.44336 -0.250215,-0.14925 -0.557496,-0.14925 -0.377516,0 -0.539936,0.0922 -0.16242,0.0922 -0.469701,0.32484 -0.302891,0.22827 -0.500429,0.22827 -0.215096,0 -0.381906,-0.15365 -0.166809,-0.15803 -0.166809,-0.35556 0,-0.022 0.04829,-0.2985 l 0.368737,-2.10268 q 0.06146,-0.37752 0.228265,-0.54872 0.16681,-0.1712 0.544326,-0.1712 h 2.317776 q 0.68479,0 0.68479,0.52238 0,0.22826 -0.16681,0.36874 -0.1668,0.14047 -0.49164,0.14047 z"
         id="path29692" />
      <path
         d="m 103.07159,207.84102 q 0.2985,-0.35557 0.64968,-0.52677 0.35118,-0.1712 0.78576,-0.1712 0.41702,0 0.7682,0.15803 0.35557,0.15364 0.61895,0.44337 0.26778,0.28533 0.41264,0.67601 0.14486,0.39069 0.14486,0.81649 0,0.61896 -0.28533,1.12377 -0.28094,0.50482 -0.79015,0.79015 -0.50482,0.28095 -1.14572,0.28095 -0.73748,0 -1.27302,-0.35996 -0.53555,-0.35996 -0.82088,-1.06231 -0.28094,-0.70675 -0.28094,-1.72517 0,-0.82966 0.1712,-1.48372 0.17119,-0.65407 0.49164,-1.08427 0.32045,-0.43019 0.77699,-0.64968 0.45653,-0.21948 1.04036,-0.21948 0.56189,0 0.98769,0.21948 0.43019,0.21949 0.64529,0.54433 0.21949,0.32484 0.21949,0.62334 0,0.17998 -0.13609,0.32923 -0.13608,0.14486 -0.34678,0.14486 -0.18437,0 -0.3424,-0.11413 -0.15803,-0.11852 -0.23266,-0.32484 -0.10096,-0.26338 -0.32045,-0.42142 -0.21948,-0.16241 -0.50921,-0.16241 -0.23265,0 -0.46531,0.13608 -0.22826,0.13169 -0.38629,0.35995 -0.32045,0.46532 -0.37752,1.65932 z m 1.18523,2.72602 q 0.44336,0 0.73308,-0.35996 0.28972,-0.36434 0.28972,-0.95257 0,-0.39946 -0.13608,-0.68479 -0.13608,-0.28973 -0.37313,-0.43898 -0.23704,-0.15364 -0.52237,-0.15364 -0.27217,0 -0.52238,0.14486 -0.24583,0.14486 -0.39947,0.42142 -0.14925,0.27216 -0.14925,0.6409 0,0.59261 0.30728,0.98769 0.30729,0.39507 0.7726,0.39507 z"
         id="path29694" />
      <path
         d="m 108.19879,211.43182 q -0.27216,0 -0.4697,-0.17559 -0.19754,-0.17559 -0.19754,-0.49165 0,-0.26777 0.18876,-0.46092 0.18876,-0.19315 0.46531,-0.19315 0.27655,0 0.4697,0.19315 0.19754,0.18876 0.19754,0.46092 0,0.31167 -0.19754,0.49165 -0.19315,0.17559 -0.45653,0.17559 z"
         id="path29696" />
      <path
         d="m 112.06175,207.43717 q 0.40385,0 0.69358,-0.23705 0.29411,-0.23704 0.29411,-0.68041 0,-0.33801 -0.23266,-0.57944 -0.23265,-0.24583 -0.62773,-0.24583 -0.26777,0 -0.44336,0.0746 -0.1712,0.0746 -0.27216,0.19754 -0.10097,0.12291 -0.19315,0.31606 -0.0878,0.19315 -0.16242,0.36435 -0.0439,0.0922 -0.15803,0.14486 -0.11413,0.0527 -0.26338,0.0527 -0.17559,0 -0.32484,-0.14047 -0.14487,-0.14486 -0.14487,-0.3819 0,-0.22827 0.13609,-0.47848 0.14047,-0.25461 0.40385,-0.48287 0.26777,-0.22827 0.66285,-0.36435 0.39507,-0.14047 0.88233,-0.14047 0.42581,0 0.77699,0.11852 0.35117,0.11413 0.61017,0.33362 0.25899,0.21948 0.39068,0.50921 0.1317,0.28972 0.1317,0.62334 0,0.43897 -0.19315,0.75503 -0.18876,0.31167 -0.54433,0.61017 0.3424,0.18437 0.57506,0.42142 0.23704,0.23704 0.35556,0.52676 0.11853,0.28534 0.11853,0.61896 0,0.39946 -0.16242,0.77259 -0.15803,0.37312 -0.4697,0.66724 -0.31168,0.28972 -0.74187,0.45653 -0.4258,0.16242 -0.94379,0.16242 -0.52677,0 -0.94379,-0.18876 -0.41702,-0.18876 -0.68919,-0.4697 -0.26777,-0.28533 -0.40824,-0.58823 -0.13608,-0.30289 -0.13608,-0.50042 0,-0.25461 0.16242,-0.40825 0.16681,-0.15803 0.41263,-0.15803 0.12291,0 0.23705,0.0746 0.11413,0.0702 0.14925,0.1712 0.22826,0.61017 0.48726,0.90867 0.26338,0.29411 0.73747,0.29411 0.27216,0 0.52238,-0.13169 0.2546,-0.13608 0.41702,-0.39947 0.16681,-0.26338 0.16681,-0.61017 0,-0.5136 -0.28094,-0.80332 -0.28094,-0.29411 -0.78137,-0.29411 -0.0878,0 -0.27217,0.0176 -0.18436,0.0176 -0.23704,0.0176 -0.24144,0 -0.37313,-0.11852 -0.13169,-0.12292 -0.13169,-0.33801 0,-0.21071 0.15803,-0.33801 0.15803,-0.13169 0.4697,-0.13169 z"
         id="path29698" />
      <path
         d="m 118.08884,210.76458 v -0.81649 h -2.20364 q -0.41702,0 -0.62773,-0.18876 -0.20632,-0.18876 -0.20632,-0.5136 0,-0.0834 0.0307,-0.16681 0.0307,-0.0878 0.0922,-0.17998 0.0614,-0.0966 0.1273,-0.18436 0.0658,-0.0878 0.16242,-0.2151 l 2.32655,-3.11232 q 0.22827,-0.30728 0.37313,-0.44336 0.14925,-0.14047 0.35557,-0.14047 0.66724,0 0.66724,0.76381 v 3.39765 h 0.18875 q 0.33801,0 0.53994,0.0922 0.20632,0.0922 0.20632,0.40385 0,0.2546 -0.16681,0.37313 -0.16681,0.11413 -0.50043,0.11413 h -0.26777 v 0.81649 q 0,0.33801 -0.14926,0.50482 -0.14925,0.16242 -0.39946,0.16242 -0.24582,0 -0.39947,-0.16681 -0.14925,-0.1712 -0.14925,-0.50043 z m -1.88758,-1.79979 h 1.88758 v -2.55043 z"
         id="path29700" />
      <path
         d="m 125.2002,208.16586 q 0,0.71992 -0.0878,1.2379 -0.0878,0.51799 -0.32484,0.9394 -0.29851,0.51799 -0.7726,0.79894 -0.47409,0.28094 -1.05353,0.28094 -0.66724,0 -1.1984,-0.37752 -0.52676,-0.37752 -0.79454,-1.04475 -0.13608,-0.36435 -0.20192,-0.80332 -0.0615,-0.44337 -0.0615,-0.95696 0,-0.66285 0.0702,-1.19401 0.0702,-0.53116 0.21948,-0.91306 0.259,-0.63212 0.75065,-0.96135 0.49603,-0.33362 1.18083,-0.33362 0.45214,0 0.82088,0.14925 0.36874,0.14486 0.64529,0.43019 0.28094,0.28094 0.47409,0.69797 0.33362,0.7243 0.33362,2.05 z m -1.20278,-0.0878 q 0,-0.80332 -0.0966,-1.31253 -0.0966,-0.5136 -0.32484,-0.77259 -0.22826,-0.26339 -0.63212,-0.26339 -0.57944,0 -0.80771,0.58384 -0.22387,0.58383 -0.22387,1.79978 0,0.82527 0.0966,1.35204 0.0966,0.52677 0.32484,0.79893 0.22826,0.26777 0.61895,0.26777 0.40386,0 0.63212,-0.28094 0.22827,-0.28094 0.32045,-0.80332 0.0922,-0.52238 0.0922,-1.36959 z"
         id="path29702" />
      <path
         d="m 130.5425,208.16586 q 0,0.71992 -0.0878,1.2379 -0.0878,0.51799 -0.32484,0.9394 -0.2985,0.51799 -0.77259,0.79894 -0.47409,0.28094 -1.05353,0.28094 -0.66724,0 -1.1984,-0.37752 -0.52677,-0.37752 -0.79454,-1.04475 -0.13608,-0.36435 -0.20193,-0.80332 -0.0614,-0.44337 -0.0614,-0.95696 0,-0.66285 0.0702,-1.19401 0.0702,-0.53116 0.21949,-0.91306 0.25899,-0.63212 0.75064,-0.96135 0.49604,-0.33362 1.18084,-0.33362 0.45214,0 0.82088,0.14925 0.36873,0.14486 0.64529,0.43019 0.28094,0.28094 0.47409,0.69797 0.33362,0.7243 0.33362,2.05 z m -1.20279,-0.0878 q 0,-0.80332 -0.0966,-1.31253 -0.0966,-0.5136 -0.32484,-0.77259 -0.22827,-0.26339 -0.63212,-0.26339 -0.57945,0 -0.80771,0.58384 -0.22388,0.58383 -0.22388,1.79978 0,0.82527 0.0966,1.35204 0.0966,0.52677 0.32484,0.79893 0.22826,0.26777 0.61895,0.26777 0.40385,0 0.63212,-0.28094 0.22826,-0.28094 0.32045,-0.80332 0.0922,-0.52238 0.0922,-1.36959 z"
         id="path29704" />
      <path
         d="m 92.15873,227.42359 h 2.923558 q 0.421414,0 0.610172,0.13169 0.188758,0.13169 0.188758,0.43459 0,0.18436 -0.223876,0.48726 -0.219486,0.30289 -0.504818,0.67162 -0.280943,0.36435 -0.583834,0.90868 -0.298501,0.54432 -0.548716,1.33008 -0.105353,0.34679 -0.14925,0.57506 -0.0439,0.22826 -0.09657,0.59261 -0.05268,0.36435 -0.09219,0.5575 -0.09218,0.44775 -0.263383,0.62334 -0.16681,0.1712 -0.447752,0.1712 -0.267774,0 -0.430193,-0.18437 -0.16242,-0.18876 -0.16242,-0.55311 0,-0.28094 0.118522,-0.76381 0.118523,-0.48287 0.386296,-1.1545 0.267774,-0.67602 0.667239,-1.38276 0.403855,-0.71114 0.95696,-1.41349 H 92.15873 q -0.368737,0 -0.553105,-0.1317 -0.179979,-0.13608 -0.179979,-0.42141 0,-0.30289 0.193148,-0.39068 0.193148,-0.0878 0.539936,-0.0878 z"
         id="path29706" />
      <path
         d="m 100.26217,228.4464 h -2.085125 l -0.250214,1.42227 q 0.623341,-0.33362 1.150108,-0.33362 0.421414,0 0.785761,0.15803 0.36874,0.15803 0.64529,0.43897 0.27655,0.27656 0.43458,0.65846 0.15803,0.38191 0.15803,0.82088 0,0.63651 -0.28533,1.15889 -0.28533,0.52238 -0.825268,0.82966 -0.535546,0.30728 -1.237902,0.30728 -0.785762,0 -1.277411,-0.28972 -0.48726,-0.28973 -0.693577,-0.66285 -0.201927,-0.37752 -0.201927,-0.65846 0,-0.1712 0.140471,-0.32484 0.144861,-0.15364 0.359958,-0.15364 0.368737,0 0.548716,0.4258 0.175589,0.39069 0.47409,0.61017 0.298501,0.2151 0.667238,0.2151 0.338009,0 0.592614,-0.17559 0.254604,-0.17559 0.390685,-0.48287 0.140471,-0.30728 0.140471,-0.69797 0,-0.42141 -0.14925,-0.71991 -0.149251,-0.2985 -0.399465,-0.44336 -0.250215,-0.14925 -0.557496,-0.14925 -0.377516,0 -0.539936,0.0922 -0.16242,0.0922 -0.469701,0.32484 -0.302891,0.22827 -0.500429,0.22827 -0.215096,0 -0.381906,-0.15365 -0.166809,-0.15803 -0.166809,-0.35556 0,-0.022 0.04829,-0.2985 l 0.368737,-2.10268 q 0.06146,-0.37752 0.228265,-0.54872 0.16681,-0.1712 0.544326,-0.1712 h 2.317776 q 0.68479,0 0.68479,0.52238 0,0.22826 -0.16681,0.36874 -0.1668,0.14047 -0.49164,0.14047 z"
         id="path29708" />
      <path
         d="m 105.60446,228.4464 h -2.08512 l -0.25021,1.42227 q 0.62334,-0.33362 1.15011,-0.33362 0.42141,0 0.78576,0.15803 0.36873,0.15803 0.64529,0.43897 0.27655,0.27656 0.43458,0.65846 0.15803,0.38191 0.15803,0.82088 0,0.63651 -0.28533,1.15889 -0.28533,0.52238 -0.82527,0.82966 -0.53555,0.30728 -1.2379,0.30728 -0.78576,0 -1.27741,-0.28972 -0.48726,-0.28973 -0.69358,-0.66285 -0.20193,-0.37752 -0.20193,-0.65846 0,-0.1712 0.14047,-0.32484 0.14486,-0.15364 0.35996,-0.15364 0.36874,0 0.54872,0.4258 0.17559,0.39069 0.47409,0.61017 0.2985,0.2151 0.66724,0.2151 0.338,0 0.59261,-0.17559 0.2546,-0.17559 0.39068,-0.48287 0.14048,-0.30728 0.14048,-0.69797 0,-0.42141 -0.14926,-0.71991 -0.14925,-0.2985 -0.39946,-0.44336 -0.25021,-0.14925 -0.5575,-0.14925 -0.37751,0 -0.53993,0.0922 -0.16242,0.0922 -0.4697,0.32484 -0.30289,0.22827 -0.50043,0.22827 -0.2151,0 -0.38191,-0.15365 -0.16681,-0.15803 -0.16681,-0.35556 0,-0.022 0.0483,-0.2985 l 0.36874,-2.10268 q 0.0615,-0.37752 0.22826,-0.54872 0.16681,-0.1712 0.54433,-0.1712 h 2.31777 q 0.6848,0 0.6848,0.52238 0,0.22826 -0.16681,0.36874 -0.16681,0.14047 -0.49165,0.14047 z"
         id="path29710" />
      <path
         d="m 108.19879,233.90722 q -0.27216,0 -0.4697,-0.17559 -0.19754,-0.17559 -0.19754,-0.49165 0,-0.26777 0.18876,-0.46092 0.18876,-0.19315 0.46531,-0.19315 0.27655,0 0.4697,0.19315 0.19754,0.18876 0.19754,0.46092 0,0.31167 -0.19754,0.49165 -0.19315,0.17559 -0.45653,0.17559 z"
         id="path29712" />
      <path
         d="m 110.99944,227.42359 h 2.92355 q 0.42142,0 0.61018,0.13169 0.18875,0.13169 0.18875,0.43459 0,0.18436 -0.22387,0.48726 -0.21949,0.30289 -0.50482,0.67162 -0.28094,0.36435 -0.58383,0.90868 -0.29851,0.54432 -0.54872,1.33008 -0.10535,0.34679 -0.14925,0.57506 -0.0439,0.22826 -0.0966,0.59261 -0.0527,0.36435 -0.0922,0.5575 -0.0922,0.44775 -0.26338,0.62334 -0.16681,0.1712 -0.44775,0.1712 -0.26778,0 -0.4302,-0.18437 -0.16242,-0.18876 -0.16242,-0.55311 0,-0.28094 0.11853,-0.76381 0.11852,-0.48287 0.38629,-1.1545 0.26777,-0.67602 0.66724,-1.38276 0.40385,-0.71114 0.95696,-1.41349 h -2.3485 q -0.36874,0 -0.55311,-0.1317 -0.17998,-0.13608 -0.17998,-0.42141 0,-0.30289 0.19315,-0.39068 0.19315,-0.0878 0.53994,-0.0878 z"
         id="path29714" />
      <path
         d="m 118.08884,233.23998 v -0.81649 h -2.20364 q -0.41702,0 -0.62773,-0.18876 -0.20632,-0.18876 -0.20632,-0.5136 0,-0.0834 0.0307,-0.16681 0.0307,-0.0878 0.0922,-0.17998 0.0614,-0.0966 0.1273,-0.18436 0.0658,-0.0878 0.16242,-0.2151 l 2.32655,-3.11232 q 0.22827,-0.30728 0.37313,-0.44336 0.14925,-0.14047 0.35557,-0.14047 0.66724,0 0.66724,0.76381 v 3.39765 h 0.18875 q 0.33801,0 0.53994,0.0922 0.20632,0.0922 0.20632,0.40385 0,0.2546 -0.16681,0.37313 -0.16681,0.11413 -0.50043,0.11413 h -0.26777 v 0.81649 q 0,0.33801 -0.14926,0.50482 -0.14925,0.16242 -0.39946,0.16242 -0.24582,0 -0.39947,-0.16681 -0.14925,-0.1712 -0.14925,-0.50043 z m -1.88758,-1.79979 h 1.88758 v -2.55043 z"
         id="path29716" />
      <path
         d="m 121.68403,227.42359 h 2.92356 q 0.42141,0 0.61017,0.13169 0.18876,0.13169 0.18876,0.43459 0,0.18436 -0.22388,0.48726 -0.21948,0.30289 -0.50482,0.67162 -0.28094,0.36435 -0.58383,0.90868 -0.2985,0.54432 -0.54872,1.33008 -0.10535,0.34679 -0.14925,0.57506 -0.0439,0.22826 -0.0966,0.59261 -0.0527,0.36435 -0.0922,0.5575 -0.0922,0.44775 -0.26338,0.62334 -0.16681,0.1712 -0.44775,0.1712 -0.26777,0 -0.43019,-0.18437 -0.16242,-0.18876 -0.16242,-0.55311 0,-0.28094 0.11852,-0.76381 0.11852,-0.48287 0.38629,-1.1545 0.26778,-0.67602 0.66724,-1.38276 0.40386,-0.71114 0.95696,-1.41349 h -2.3485 q -0.36874,0 -0.55311,-0.1317 -0.17997,-0.13608 -0.17997,-0.42141 0,-0.30289 0.19314,-0.39068 0.19315,-0.0878 0.53994,-0.0878 z"
         id="path29718" />
      <path
         d="m 129.78746,228.4464 h -2.08512 l -0.25021,1.42227 q 0.62334,-0.33362 1.15011,-0.33362 0.42141,0 0.78576,0.15803 0.36874,0.15803 0.64529,0.43897 0.27655,0.27656 0.43458,0.65846 0.15803,0.38191 0.15803,0.82088 0,0.63651 -0.28533,1.15889 -0.28533,0.52238 -0.82527,0.82966 -0.53555,0.30728 -1.2379,0.30728 -0.78576,0 -1.27741,-0.28972 -0.48726,-0.28973 -0.69358,-0.66285 -0.20193,-0.37752 -0.20193,-0.65846 0,-0.1712 0.14047,-0.32484 0.14487,-0.15364 0.35996,-0.15364 0.36874,0 0.54872,0.4258 0.17559,0.39069 0.47409,0.61017 0.2985,0.2151 0.66724,0.2151 0.33801,0 0.59261,-0.17559 0.2546,-0.17559 0.39069,-0.48287 0.14047,-0.30728 0.14047,-0.69797 0,-0.42141 -0.14925,-0.71991 -0.14925,-0.2985 -0.39947,-0.44336 -0.25021,-0.14925 -0.55749,-0.14925 -0.37752,0 -0.53994,0.0922 -0.16242,0.0922 -0.4697,0.32484 -0.30289,0.22827 -0.50043,0.22827 -0.2151,0 -0.38191,-0.15365 -0.16681,-0.15803 -0.16681,-0.35556 0,-0.022 0.0483,-0.2985 l 0.36874,-2.10268 q 0.0614,-0.37752 0.22826,-0.54872 0.16681,-0.1712 0.54433,-0.1712 h 2.31778 q 0.68479,0 0.68479,0.52238 0,0.22826 -0.16681,0.36874 -0.16681,0.14047 -0.49165,0.14047 z"
         id="path29720" />
    </g>
  </g>
  <g
     inkscape:groupmode="layer"
     id="layer3"
     inkscape:label="Frosted"
     style="display:none">
    <rect
       style="fill:none;stroke:#ffe119;stroke-width:0.932688;stroke-miterlimit:3"
       id="rect16966"
       width="96.189796"
       height="147.00085"
       x="62.646194"
       y="122.19733"
       rx="2"
       ry="2" />
    <g
       id="g17742"
       style="stroke:#f58231"
       transform="translate(0,10.054167)">
      <circle
         style="fill:none;stroke:#f58231;stroke-width:0.1;stroke-miterlimit:3;stroke-dasharray:none"
         id="circle17734"
         cx="67.646194"
         cy="117.14318"
         r="1" />
      <circle
         style="fill:none;stroke:#f58231;stroke-width:0.1;stroke-miterlimit:3;stroke-dasharray:none"
         id="circle17736"
         cx="153.84175"
         cy="117.14318"
         r="1" />
      <circle
         style="fill:none;stroke:#f58231;stroke-width:0.1;stroke-miterlimit:3;stroke-dasharray:none"
         id="circle17738"
         cx="67.646194"
         cy="254.14404"
         r="1" />
      <circle
         style="fill:none;stroke:#f58231;stroke-width:0.1;stroke-miterlimit:3;stroke-dasharray:none"
         id="circle17740"
         cx="153.84175"
         cy="254.14404"
         r="1" />
    </g>
  </g>
</svg>
